<?xml version="1.0" encoding="UTF-8" standalone="no"?>
<!-- Created with Inkscape (http://www.inkscape.org/) -->
<svg
   xmlns:dc="http://purl.org/dc/elements/1.1/"
   xmlns:cc="http://creativecommons.org/ns#"
   xmlns:rdf="http://www.w3.org/1999/02/22-rdf-syntax-ns#"
   xmlns:svg="http://www.w3.org/2000/svg"
   xmlns="http://www.w3.org/2000/svg"
   xmlns:xlink="http://www.w3.org/1999/xlink"
   xmlns:sodipodi="http://sodipodi.sourceforge.net/DTD/sodipodi-0.dtd"
   xmlns:inkscape="http://www.inkscape.org/namespaces/inkscape"
   width="650"
   height="195"
   id="svg2"
   sodipodi:version="0.32"
   inkscape:version="0.46"
   version="1.0"
   sodipodi:docname="SFV Logo.svg"
   inkscape:output_extension="org.inkscape.output.svg.inkscape">
  <defs
     id="defs4">
    <inkscape:perspective
       sodipodi:type="inkscape:persp3d"
       inkscape:vp_x="0 : 526.18109 : 1"
       inkscape:vp_y="0 : 1000 : 0"
       inkscape:vp_z="744.09448 : 526.18109 : 1"
       inkscape:persp3d-origin="372.04724 : 350.78739 : 1"
       id="perspective10" />
    <clipPath
       id="clipPath2736"
       clipPathUnits="userSpaceOnUse">
      <path
         id="path2738"
         d="M 368.646,734.457 L 557.008,734.457 L 557.008,810.76 L 368.646,810.76 L 368.646,734.457 z" />
    </clipPath>
    <clipPath
       id="clipPath2652"
       clipPathUnits="userSpaceOnUse">
      <path
         id="path2654"
         d="M -383.055,1051.563 L 807.535,1051.563 L 807.535,-138.897 L -383.055,-138.897 L -383.055,1051.563 z" />
    </clipPath>
    <clipPath
       id="clipPath2572"
       clipPathUnits="userSpaceOnUse">
      <path
         id="path2574"
         d="M -383.055,1051.563 L 807.535,1051.563 L 807.535,-138.897 L -383.055,-138.897 L -383.055,1051.563 z" />
    </clipPath>
    <clipPath
       id="clipPath2556"
       clipPathUnits="userSpaceOnUse">
      <path
         id="path2558"
         d="M -383.055,1051.563 L 807.535,1051.563 L 807.535,-138.897 L -383.055,-138.897 L -383.055,1051.563 z" />
    </clipPath>
    <clipPath
       id="clipPath2540"
       clipPathUnits="userSpaceOnUse">
      <path
         id="path2542"
         d="M -383.055,1051.563 L 807.535,1051.563 L 807.535,-138.897 L -383.055,-138.897 L -383.055,1051.563 z" />
    </clipPath>
    <clipPath
       id="clipPath2526"
       clipPathUnits="userSpaceOnUse">
      <path
         id="path2528"
         d="M -383.055,1051.563 L 807.535,1051.563 L 807.535,-138.897 L -383.055,-138.897 L -383.055,1051.563 z" />
    </clipPath>
    <radialGradient
       id="radialGradient2472"
       gradientTransform="matrix(1533.5,0,0,-2162.0701,1151.2449,1252.0228)"
       gradientUnits="userSpaceOnUse"
       r="1"
       cy="0"
       cx="0"
       fy="0"
       fx="0">
      <stop
         id="stop2474"
         offset="0"
         style="stop-opacity:1;stop-color:#5c151a" />
      <stop
         id="stop2476"
         offset="1"
         style="stop-opacity:1;stop-color:#c8082e" />
    </radialGradient>
    <clipPath
       id="clipPath2454"
       clipPathUnits="userSpaceOnUse">
      <path
         id="path2456"
         clip-rule="evenodd"
         d="M 807.535,-138.897 L -383.018,-138.897 L -383.018,1051.653 L 807.535,1051.653 L 807.535,-138.897 z" />
    </clipPath>
    <clipPath
       id="clipPath2446"
       clipPathUnits="userSpaceOnUse">
      <path
         id="path2448"
         d="M -383.055,1051.563 L 807.535,1051.563 L 807.535,-138.897 L -383.055,-138.897 L -383.055,1051.563 z" />
    </clipPath>
    <clipPath
       id="clipPath2438"
       clipPathUnits="userSpaceOnUse">
      <path
         id="path2440"
         d="M 183.78,799.37 L 42.52,799.37 L 42.52,42.52 L 291.969,42.52 C 169.059,138.324 88.484,298.184 88.484,479.318 C 88.484,599.534 123.994,710.377 183.78,799.37" />
    </clipPath>
    <clipPath
       id="clipPath2416"
       clipPathUnits="userSpaceOnUse">
      <path
         id="path2418"
         d="M 720.045,831.55 L 1246.365,831.55 L 1246.365,20.47 L 720.045,20.47 L 720.045,831.55 z" />
    </clipPath>
    <clipPath
       id="clipPath2408"
       clipPathUnits="userSpaceOnUse">
      <path
         id="path2410"
         d="M 553.256,42.02 L 553.256,511.61 C 529.878,518.68 505.098,522.52 479.413,522.52 C 338.713,522.52 224.652,408.46 224.652,267.759 C 224.652,169.678 280.112,84.597 361.352,42.02 L 553.256,42.02 z" />
    </clipPath>
    <clipPath
       id="clipPath2398"
       clipPathUnits="userSpaceOnUse">
      <path
         id="path2400"
         d="M 0,0 L 595.276,0 L 595.276,841.89 L 0,841.89 L 0,0 z" />
    </clipPath>
    <inkscape:perspective
       id="perspective2390"
       inkscape:persp3d-origin="372.04724 : 350.78739 : 1"
       inkscape:vp_z="744.09448 : 526.18109 : 1"
       inkscape:vp_y="0 : 1000 : 0"
       inkscape:vp_x="0 : 526.18109 : 1"
       sodipodi:type="inkscape:persp3d" />
    <radialGradient
       inkscape:collect="always"
       xlink:href="#radialGradient2472"
       id="radialGradient4870"
       gradientUnits="userSpaceOnUse"
       gradientTransform="matrix(1533.5,0,0,-2162.0701,1151.2449,1252.0228)"
       cx="0"
       cy="0"
       fx="0"
       fy="0"
       r="1" />
    <radialGradient
       inkscape:collect="always"
       xlink:href="#radialGradient2472"
       id="radialGradient4886"
       gradientUnits="userSpaceOnUse"
       gradientTransform="matrix(1533.5,0,0,-2162.0701,1151.2449,1252.0228)"
       cx="0"
       cy="0"
       fx="0"
       fy="0"
       r="1" />
    <radialGradient
       inkscape:collect="always"
       xlink:href="#radialGradient2472"
       id="radialGradient4892"
       gradientUnits="userSpaceOnUse"
       gradientTransform="matrix(1533.5,0,0,-2162.0701,1151.2449,1252.0228)"
       cx="0"
       cy="0"
       fx="0"
       fy="0"
       r="1" />
  </defs>
  <sodipodi:namedview
     id="base"
     pagecolor="#ffffff"
     bordercolor="#666666"
     borderopacity="1.0"
     inkscape:pageopacity="0.0"
     inkscape:pageshadow="2"
     inkscape:zoom="1.0076756"
     inkscape:cx="356.42835"
     inkscape:cy="254.43895"
     inkscape:document-units="px"
     inkscape:current-layer="layer1"
     showgrid="false"
     inkscape:window-width="1280"
     inkscape:window-height="968"
     inkscape:window-x="-4"
     inkscape:window-y="-4" />
  <metadata
     id="metadata7">
    <rdf:RDF>
      <cc:Work
         rdf:about="">
        <dc:format>image/svg+xml</dc:format>
        <dc:type
           rdf:resource="http://purl.org/dc/dcmitype/StillImage" />
      </cc:Work>
    </rdf:RDF>
  </metadata>
  <g
     inkscape:label="Ebene 1"
     inkscape:groupmode="layer"
     id="layer1"
     transform="translate(-482.31305,88.558007)">
    <g
       id="g4897"
       transform="matrix(2.8618409,0,0,2.8618409,-888.74676,-202.84704)">
      <path
         id="path2740"
         style="fill:#d7002c;fill-opacity:1;fill-rule:nonzero;stroke:none"
         d="M 625.08803,81.45435 C 620.47053,81.45435 616.71553,85.20685 616.71553,89.8181 C 616.71553,94.4406 620.47053,98.19935 625.08803,98.19935 L 630.19553,98.19935 L 630.19553,96.16935 L 625.08803,96.16935 C 621.59053,96.16935 618.74553,93.3206 618.74553,89.8181 C 618.74553,86.32685 621.59053,83.4856 625.08803,83.4856 L 627.52178,83.4856 L 627.52178,81.45435 L 625.08803,81.45435 z" />
      <path
         id="path2742"
         style="fill:#d7002c;fill-opacity:1;fill-rule:nonzero;stroke:none"
         d="M 656.83178,57.2656 L 632.15053,57.2656 L 632.15053,59.29685 L 637.24178,59.29685 C 640.74678,59.29685 643.59553,62.13685 643.59553,65.62935 C 643.59553,69.1306 640.74678,71.9806 637.24178,71.9806 L 635.20428,71.9806 L 635.20428,74.01185 L 637.24178,74.01185 C 638.87678,74.01185 640.40428,73.53935 641.69678,72.72685 L 641.69678,79.45435 L 643.72678,79.45435 L 643.72678,70.93685 C 644.91303,69.4906 645.62803,67.64185 645.62803,65.62935 C 645.62803,63.09935 644.49428,60.8306 642.71053,59.29685 L 656.83178,59.29685 L 656.83178,57.2656 z" />
      <path
         id="path2744"
         style="fill:#d7002c;fill-opacity:1;fill-rule:nonzero;stroke:none"
         d="M 647.95303,70.9156 L 647.95303,79.45435 L 649.98428,79.45435 L 649.98428,72.94685 L 653.34803,72.94685 L 653.34803,70.9156 L 647.95303,70.9156 z" />
      <path
         id="path2746"
         style="fill:#d7002c;fill-opacity:1;fill-rule:nonzero;stroke:none"
         d="M 648.08428,66.65435 L 656.01303,66.65435 L 656.01303,64.6231 L 648.08428,64.6231 L 648.08428,66.65435 z" />
      <path
         id="path2748"
         style="fill:#d7002c;fill-opacity:1;fill-rule:nonzero;stroke:none"
         d="M 641.92928,90.8206 L 649.22303,90.8206 L 649.22303,88.78935 L 641.92928,88.78935 L 641.92928,90.8206 z" />
      <path
         id="path2750"
         style="fill:#d7002c;fill-opacity:1;fill-rule:evenodd;stroke:none"
         d="M 671.18428,80.33685 C 671.00303,80.60185 670.82053,80.8681 670.63428,81.1356 C 668.74678,83.85185 666.21428,86.9606 663.28928,90.0156 C 662.97053,90.3481 662.65803,90.70435 662.34553,91.06685 C 663.90303,88.11935 664.95303,84.8881 665.39928,81.5056 L 657.84053,81.5056 C 657.29928,84.34935 656.11678,87.0456 654.40803,89.38935 L 654.40803,81.4881 L 652.37678,81.4881 L 652.37678,94.6981 L 654.12178,92.89935 C 656.67553,90.26435 658.50803,87.01935 659.46053,83.5156 L 662.98428,83.5156 C 661.28178,91.17685 656.21178,97.7731 649.14678,101.3531 C 649.13428,101.35935 649.12428,101.36435 648.96803,101.4431 L 648.96803,103.69685 C 649.12428,103.61935 649.13553,103.6131 649.14678,103.6081 C 650.14303,103.14685 651.10178,102.62935 652.02803,102.06435 C 652.08553,102.03185 652.14678,101.9931 652.21553,101.9506 C 652.22053,101.9481 652.22553,101.9431 652.23053,101.9406 C 652.66178,101.67185 653.08303,101.3906 653.49803,101.09935 C 661.65303,95.58185 668.18803,88.2256 672.34303,82.23685 C 672.61678,81.84185 672.88303,81.44935 673.14553,81.05685 L 671.18428,80.33685 z" />
      <path
         id="path2752"
         style="fill:#d7002c;fill-opacity:1;fill-rule:evenodd;stroke:none"
         d="M 630.51678,52.1306 C 632.66803,51.5581 634.92053,51.25185 637.23678,51.25185 L 637.23678,49.22185 C 634.78928,49.22185 632.40803,49.54435 630.13053,50.13935 L 630.12678,50.1281 C 630.03053,50.1531 629.93803,50.1856 629.84303,50.21435 C 618.97678,53.17185 610.55803,62.4656 609.06678,73.95185 L 616.56553,73.95185 C 616.99178,72.0406 617.75303,70.2756 618.64053,68.7131 L 620.87803,68.7131 L 620.87803,66.68185 L 617.49178,66.6806 C 616.51803,68.22185 615.62428,69.98685 615.00803,71.9256 L 611.48178,71.9256 C 613.16053,64.3531 618.12428,58.02435 624.73553,54.43685 C 624.13928,55.5956 623.80303,56.9006 623.80303,58.2706 C 623.80303,60.1631 624.43303,61.90935 625.49178,63.3131 L 625.49178,71.9256 L 620.45303,71.9256 L 620.45303,73.95685 L 627.52303,73.95685 L 627.52303,65.23685 C 628.85428,66.1306 630.45553,66.65435 632.17678,66.65435 L 637.23678,66.65435 L 637.23678,64.6231 L 632.17678,64.6231 C 628.67928,64.6231 625.83428,61.7731 625.83428,58.2706 C 625.83428,55.40185 627.75428,52.89685 630.51678,52.1306" />
      <path
         id="path2754"
         style="fill:#d7002c;fill-opacity:1;fill-rule:nonzero;stroke:none"
         d="M 641.92928,95.8206 L 641.92928,105.5706 L 643.96053,105.5706 L 643.96053,97.85185 L 647.17053,97.85185 L 647.17053,95.8206 L 641.92928,95.8206 z" />
      <path
         id="path2756"
         style="fill:#d7002c;fill-opacity:1;fill-rule:nonzero;stroke:none"
         d="M 649.98428,83.5156 L 649.98428,81.48435 L 635.20428,81.48435 L 635.20428,90.43685 C 633.81553,89.41685 632.10053,88.81185 630.24553,88.81185 L 625.46928,88.81185 L 625.46928,90.8431 L 630.24553,90.8431 C 633.74928,90.8431 636.59928,93.68435 636.59928,97.17435 C 636.59928,100.6756 633.74928,103.5256 630.24553,103.5256 L 630.24553,105.55685 C 634.86928,105.55685 638.63053,101.7956 638.63053,97.17435 C 638.63053,95.47185 638.11553,93.88685 637.23678,92.56435 L 637.23678,83.5156 L 649.98428,83.5156 z" />
      <path
         id="path2758"
         style="fill:#d7002c;fill-opacity:1;fill-rule:evenodd;stroke:none"
         d="M 702.96303,90.99435 L 702.96303,90.99435 L 702.96303,90.99435 C 702.95803,90.94185 702.95428,90.88935 702.94928,90.83685 C 702.61678,87.32185 699.52678,84.68935 695.98678,84.93935 C 694.47303,85.0456 693.07553,85.6631 691.98428,86.68685 L 693.51303,88.04685 C 694.24303,87.4156 695.15053,87.03435 696.12928,86.96435 C 698.60553,86.78935 700.76178,88.66185 700.93678,91.1381 C 701.02178,92.33685 700.63428,93.4981 699.84803,94.4056 C 699.05803,95.31435 697.96428,95.86185 696.76428,95.94685 C 695.87553,96.00935 695.00928,95.80935 694.24928,95.38185 C 694.24303,95.3781 694.23678,95.37435 694.23053,95.3706 C 694.08678,95.2881 693.94803,95.19435 693.81178,95.0956 C 693.35178,94.7506 692.86678,94.33185 692.36428,93.85935 C 687.93303,83.51935 683.36178,75.6431 678.85928,70.5881 C 680.67303,66.89435 681.81678,63.89185 682.42678,62.12685 L 680.58428,61.22435 C 680.04803,62.7781 679.00803,65.5531 677.35553,69.00185 C 675.35053,67.0256 673.36303,65.61935 671.41178,64.82185 L 670.64178,66.70185 C 674.74303,68.3781 681.16553,73.9556 688.85803,90.66185 C 688.09428,89.61685 687.29428,88.33435 686.49928,87.40935 C 684.28428,84.8381 681.77428,81.9231 679.08053,79.21435 C 676.98428,77.10685 674.67553,76.0181 672.44303,74.96685 C 670.76928,74.1781 669.19053,73.4331 667.72303,72.28935 L 667.69678,72.26935 L 667.67053,72.2506 C 666.36678,71.36435 665.59053,69.8956 665.59553,68.3206 C 665.59928,66.9831 666.27678,65.76935 666.99428,64.48435 L 667.93178,62.79935 C 669.08803,60.72185 669.56428,59.85935 669.74053,59.3856 C 670.04803,58.60685 670.19803,57.76185 670.17678,56.8981 C 670.08553,53.20935 667.39553,50.63935 663.63428,50.6506 L 652.71553,50.6506 C 656.14428,48.91185 661.23428,47.28435 666.57803,47.5156 C 669.71178,47.65185 671.21553,48.36185 672.42303,48.93185 C 673.24303,49.31935 674.01678,49.6831 674.99928,49.6831 C 677.15303,49.6831 677.83053,48.1606 678.19303,47.34185 L 678.31178,47.08185 L 678.33053,47.04685 C 678.45303,46.7731 678.59928,46.51185 678.76678,46.2706 C 679.48803,45.22935 680.57428,44.5306 681.82053,44.30435 C 683.06678,44.0781 684.32803,44.3506 685.36928,45.07185 C 686.41178,45.79435 687.11053,46.8781 687.33553,48.1256 C 687.56303,49.37185 687.28928,50.6331 686.56803,51.67435 C 685.76428,52.83435 684.64178,53.59685 683.48803,53.76685 C 682.56928,53.9031 681.69428,53.6631 680.95178,53.0731 C 680.37928,52.61935 680.03928,51.8906 680.06553,51.17185 C 680.08178,50.7306 680.23678,50.3156 680.51053,49.93685 L 678.81678,48.82185 C 678.34053,49.5056 678.06678,50.27685 678.03553,51.0981 C 677.98678,52.46935 678.60428,53.8031 679.68803,54.66435 C 680.86428,55.5981 682.31928,55.9931 683.78428,55.77685 C 684.14678,55.7231 684.50678,55.6306 684.85803,55.5056 C 687.02553,57.5131 690.03553,61.38185 691.17553,63.6506 C 691.51678,64.2931 691.62303,64.9906 691.49053,65.68685 C 691.33678,66.49435 690.87803,67.1931 690.19803,67.6556 C 689.51928,68.1181 688.69928,68.2881 687.89053,68.13435 C 687.17928,67.99935 686.56928,67.62435 686.12428,67.1006 L 684.50553,68.34185 C 685.24803,69.2531 686.29678,69.89935 687.51178,70.12935 C 688.85303,70.38435 690.21178,70.1031 691.34053,69.3356 C 692.46928,68.56685 693.23053,67.40685 693.48678,66.0656 C 693.70178,64.92685 693.52178,63.73685 692.97928,62.71685 C 691.72553,60.2231 688.83428,56.5731 686.70928,54.46685 C 687.27803,54.01685 687.79678,53.46685 688.23678,52.8306 C 689.26803,51.3431 689.65803,49.5431 689.33553,47.7631 C 689.01178,45.98185 688.01428,44.43435 686.52553,43.4031 C 685.03803,42.37185 683.23928,41.98185 681.45803,42.3056 C 679.67678,42.6281 678.12803,43.6256 677.09678,45.11435 C 676.85803,45.45935 676.65053,45.82935 676.47678,46.21685 C 676.47428,46.2156 676.33803,46.51685 676.33803,46.51685 C 675.97803,47.32435 675.80178,47.6531 674.99928,47.6531 C 674.47303,47.6531 674.00303,47.4306 673.29053,47.0956 C 671.99053,46.4806 670.20928,45.6406 666.66678,45.48685 C 659.25178,45.16435 652.24803,48.1981 648.97428,50.5156 L 648.97428,52.68185 L 663.63803,52.68185 C 666.27178,52.67435 668.08303,54.38935 668.14553,56.94935 C 668.14678,56.98685 668.14678,57.02435 668.14678,57.06185 C 668.14678,57.6131 668.04428,58.1506 667.84428,58.65935 C 667.70678,59.0256 667.05678,60.19435 666.15678,61.8106 L 665.22053,63.49435 C 664.40803,64.9481 663.56928,66.45185 663.56428,68.3156 L 663.56428,68.33435 C 663.56428,70.56935 664.66428,72.65185 666.50928,73.9156 C 668.14428,75.18435 669.88928,76.0081 671.57678,76.8031 C 673.74678,77.82685 675.79553,78.79185 677.64053,80.6456 C 680.28303,83.3031 682.66053,86.06435 684.95928,88.73435 C 687.77303,92.00185 690.21928,94.9331 692.57678,96.7131 C 693.82428,97.6356 695.34178,98.08185 696.90678,97.97185 C 698.64803,97.8481 700.23803,97.05435 701.38178,95.73685 C 702.52428,94.4181 703.08678,92.73435 702.96303,90.99435 M 666.52803,74.25935 C 666.52053,74.2556 666.51553,74.2506 666.50928,74.2456 C 666.49803,74.23685 666.48678,74.2306 666.47428,74.22185 L 666.52803,74.25935 z" />
      <path
         id="path2760"
         style="fill:#d7002c;fill-opacity:1;fill-rule:nonzero;stroke:none"
         d="M 609.06678,77.15935 L 610.93178,77.15935 L 610.93178,77.5081 L 610.19928,77.5081 L 610.19928,79.4631 L 609.79553,79.4631 L 609.79553,77.5081 L 609.06678,77.5081 L 609.06678,77.15935 z" />
      <path
         id="path2762"
         style="fill:#d7002c;fill-opacity:1;fill-rule:nonzero;stroke:none"
         d="M 611.38678,77.15935 L 611.95428,77.15935 L 612.59053,78.9631 L 612.59678,78.9631 L 613.21553,77.15935 L 613.77803,77.15935 L 613.77803,79.4631 L 613.39428,79.4631 L 613.39428,77.6856 L 613.38678,77.6856 L 612.74803,79.4631 L 612.41553,79.4631 L 611.77803,77.6856 L 611.77178,77.6856 L 611.77178,79.4631 L 611.38678,79.4631 L 611.38678,77.15935 z" />
      <path
         id="path2764"
         style="fill:#000000;fill-opacity:1;fill-rule:nonzero;stroke:none"
         d="M 504.35178,55.32935 C 504.27928,54.66435 503.83553,54.37685 503.19678,54.37685 C 502.67428,54.37685 502.15178,54.5656 502.15178,55.1731 C 502.15178,55.7481 502.89553,55.83185 503.64678,56.00185 C 504.39053,56.17185 505.13553,56.4331 505.13553,57.34685 C 505.13553,58.33935 504.16303,58.73685 503.31428,58.73685 C 502.26928,58.73685 501.38803,58.2281 501.38803,57.09185 L 501.97553,57.09185 C 501.97553,57.8756 502.62803,58.2156 503.33303,58.2156 C 503.89553,58.2156 504.51428,58.03935 504.51428,57.36685 C 504.51428,56.72685 503.77053,56.6156 503.02678,56.4531 C 502.28303,56.28935 501.53178,56.07435 501.53178,55.21935 C 501.53178,54.27185 502.37428,53.85435 503.22303,53.85435 C 504.17553,53.85435 504.90053,54.30435 504.93928,55.32935 L 504.35178,55.32935 z" />
      <path
         id="path2766"
         style="fill:#000000;fill-opacity:1;fill-rule:nonzero;stroke:none"
         d="M 508.31428,56.3356 C 508.22928,55.9106 507.93553,55.6631 507.47803,55.6631 C 506.67553,55.6631 506.42803,56.2956 506.42803,56.98185 C 506.42803,57.6006 506.70803,58.2156 507.41303,58.2156 C 507.94928,58.2156 508.26928,57.90185 508.34053,57.3931 L 508.90803,57.3931 C 508.78428,58.2156 508.26928,58.70435 507.42053,58.70435 C 506.38803,58.70435 505.84053,57.98685 505.84053,56.98185 C 505.84053,55.96935 506.36178,55.1731 507.43303,55.1731 C 508.19678,55.1731 508.81053,55.53185 508.88803,56.3356 L 508.31428,56.3356 z" />
      <path
         id="path2768"
         style="fill:#000000;fill-opacity:1;fill-rule:nonzero;stroke:none"
         d="M 509.75678,53.9656 L 510.31178,53.9656 L 510.31178,55.7481 L 510.32553,55.7481 C 510.50803,55.3431 510.98428,55.1731 511.38928,55.1731 C 512.27678,55.1731 512.55053,55.68185 512.55053,56.40685 L 512.55053,58.62685 L 511.99553,58.62685 L 511.99553,56.34185 C 511.99553,55.9306 511.73553,55.6631 511.31053,55.6631 C 510.63803,55.6631 510.31178,56.1131 510.31178,56.7206 L 510.31178,58.62685 L 509.75678,58.62685 L 509.75678,53.9656 z" />
      <path
         id="path2770"
         style="fill:#000000;fill-opacity:1;fill-rule:nonzero;stroke:none"
         d="M 516.95803,58.62685 L 516.37053,58.62685 L 515.68428,55.9431 L 515.67178,55.9431 L 514.99178,58.62685 L 514.39178,58.62685 L 513.30803,55.25185 L 513.92178,55.25185 L 514.68553,58.0131 L 514.69928,58.0131 L 515.37803,55.25185 L 515.98428,55.25185 L 516.68928,58.0131 L 516.70303,58.0131 L 517.45928,55.25185 L 518.03428,55.25185 L 516.95803,58.62685 z" />
      <path
         id="path2772"
         style="fill:#000000;fill-opacity:1;fill-rule:nonzero;stroke:none"
         d="M 521.13553,56.6156 C 521.10928,56.08685 520.71053,55.6631 520.16303,55.6631 C 519.58178,55.6631 519.23553,56.09935 519.19553,56.6156 L 521.13553,56.6156 z M 521.67053,57.5556 C 521.52053,58.3006 520.98553,58.70435 520.22803,58.70435 C 519.15053,58.70435 518.64178,57.9606 518.60928,56.92935 C 518.60928,55.91685 519.27553,55.1731 520.19553,55.1731 C 521.38928,55.1731 521.75553,56.28935 521.72303,57.1056 L 519.19553,57.1056 C 519.17678,57.6931 519.50928,58.2156 520.24803,58.2156 C 520.70428,58.2156 521.02428,57.9931 521.12178,57.5556 L 521.67053,57.5556 z" />
      <path
         id="path2774"
         style="fill:#000000;fill-opacity:1;fill-rule:nonzero;stroke:none"
         d="M 522.55803,55.25185 L 523.11303,55.25185 L 523.11303,58.62685 L 522.55803,58.62685 L 522.55803,55.25185 z M 523.11303,54.64435 L 522.55803,54.64435 L 522.55803,53.9656 L 523.11303,53.9656 L 523.11303,54.64435 z" />
      <path
         id="path2776"
         style="fill:#000000;fill-opacity:1;fill-rule:nonzero;stroke:none"
         d="M 523.92928,58.20185 L 525.96553,55.7406 L 524.05928,55.7406 L 524.05928,55.25185 L 526.68303,55.25185 L 526.68303,55.6306 L 524.62053,58.13685 L 526.77553,58.13685 L 526.77553,58.62685 L 523.92928,58.62685 L 523.92928,58.20185 z" />
      <path
         id="path2778"
         style="fill:#000000;fill-opacity:1;fill-rule:nonzero;stroke:none"
         d="M 529.90803,56.6156 C 529.88178,56.08685 529.48428,55.6631 528.93553,55.6631 C 528.35553,55.6631 528.00928,56.09935 527.96928,56.6156 L 529.90803,56.6156 z M 530.44428,57.5556 C 530.29303,58.3006 529.75803,58.70435 529.00053,58.70435 C 527.92428,58.70435 527.41553,57.9606 527.38303,56.92935 C 527.38303,55.91685 528.04803,55.1731 528.96803,55.1731 C 530.16303,55.1731 530.52928,56.28935 530.49553,57.1056 L 527.96928,57.1056 C 527.95053,57.6931 528.28303,58.2156 529.02053,58.2156 C 529.47803,58.2156 529.79803,57.9931 529.89553,57.5556 L 530.44428,57.5556 z" />
      <path
         id="path2780"
         style="fill:#000000;fill-opacity:1;fill-rule:nonzero;stroke:none"
         d="M 531.27928,55.25185 L 531.80178,55.25185 L 531.80178,55.9631 L 531.81428,55.9631 C 532.08178,55.42185 532.45428,55.1531 533.05428,55.1731 L 533.05428,55.7606 C 532.16053,55.7606 531.83428,56.26935 531.83428,57.12435 L 531.83428,58.62685 L 531.27928,58.62685 L 531.27928,55.25185 z" />
      <path
         id="path2782"
         style="fill:#000000;fill-opacity:1;fill-rule:nonzero;stroke:none"
         d="M 533.73428,55.25185 L 534.28928,55.25185 L 534.28928,58.62685 L 533.73428,58.62685 L 533.73428,55.25185 z M 534.28803,54.64435 L 533.73303,54.64435 L 533.73303,53.9656 L 534.28803,53.9656 L 534.28803,54.64435 z" />
      <path
         id="path2784"
         style="fill:#000000;fill-opacity:1;fill-rule:nonzero;stroke:none"
         d="M 535.71803,57.56185 C 535.73803,58.0581 536.16928,58.2156 536.62553,58.2156 C 536.97178,58.2156 537.44178,58.13685 537.44178,57.7131 C 537.44178,57.28185 536.89303,57.20935 536.33928,57.0856 C 535.79053,56.96185 535.23553,56.7781 535.23553,56.1331 C 535.23553,55.4531 535.90803,55.1731 536.49553,55.1731 C 537.23928,55.1731 537.83303,55.4081 537.87928,56.2306 L 537.32428,56.2306 C 537.28428,55.79935 536.90678,55.6631 536.54053,55.6631 C 536.20803,55.6631 535.82303,55.75435 535.82303,56.09435 C 535.82303,56.49185 536.41053,56.55685 536.92553,56.6806 C 537.48178,56.80435 538.02928,56.9881 538.02928,57.6406 C 538.02928,58.4431 537.27803,58.70435 536.59303,58.70435 C 535.83553,58.70435 535.19678,58.3981 535.16303,57.56185 L 535.71803,57.56185 z" />
      <path
         id="path2786"
         style="fill:#000000;fill-opacity:1;fill-rule:nonzero;stroke:none"
         d="M 541.16303,56.3356 C 541.07803,55.9106 540.78428,55.6631 540.32678,55.6631 C 539.52428,55.6631 539.27553,56.2956 539.27553,56.98185 C 539.27553,57.6006 539.55678,58.2156 540.26178,58.2156 C 540.79678,58.2156 541.11678,57.90185 541.18803,57.3931 L 541.75678,57.3931 C 541.63303,58.2156 541.11678,58.70435 540.26803,58.70435 C 539.23678,58.70435 538.68803,57.98685 538.68803,56.98185 C 538.68803,55.96935 539.21053,55.1731 540.28178,55.1731 C 541.04553,55.1731 541.65803,55.53185 541.73678,56.3356 L 541.16303,56.3356 z" />
      <path
         id="path2788"
         style="fill:#000000;fill-opacity:1;fill-rule:nonzero;stroke:none"
         d="M 542.60553,53.9656 L 543.15928,53.9656 L 543.15928,55.7481 L 543.17303,55.7481 C 543.35678,55.3431 543.83303,55.1731 544.23803,55.1731 C 545.12428,55.1731 545.39928,55.68185 545.39928,56.40685 L 545.39928,58.62685 L 544.84428,58.62685 L 544.84428,56.34185 C 544.84428,55.9306 544.58303,55.6631 544.15928,55.6631 C 543.48678,55.6631 543.15928,56.1131 543.15928,56.7206 L 543.15928,58.62685 L 542.60553,58.62685 L 542.60553,53.9656 z" />
      <path
         id="path2790"
         style="fill:#000000;fill-opacity:1;fill-rule:nonzero;stroke:none"
         d="M 548.80678,56.6156 C 548.78053,56.08685 548.38303,55.6631 547.83428,55.6631 C 547.25303,55.6631 546.90678,56.09935 546.86803,56.6156 L 548.80678,56.6156 z M 549.34178,57.5556 C 549.19178,58.3006 548.65678,58.70435 547.89928,58.70435 C 546.82178,58.70435 546.31303,57.9606 546.28053,56.92935 C 546.28053,55.91685 546.94678,55.1731 547.86678,55.1731 C 549.06178,55.1731 549.42678,56.28935 549.39428,57.1056 L 546.86803,57.1056 C 546.84803,57.6931 547.18053,58.2156 547.91928,58.2156 C 548.37553,58.2156 548.69553,57.9931 548.79303,57.5556 L 549.34178,57.5556 z" />
      <path
         id="path2792"
         style="fill:#000000;fill-opacity:1;fill-rule:nonzero;stroke:none"
         d="M 550.17678,55.25185 L 550.69928,55.25185 L 550.69928,55.9631 L 550.71303,55.9631 C 550.98053,55.42185 551.35178,55.1531 551.95303,55.1731 L 551.95303,55.7606 C 551.05928,55.7606 550.73303,56.26935 550.73303,57.12435 L 550.73303,58.62685 L 550.17678,58.62685 L 550.17678,55.25185 z" />
      <path
         id="path2794"
         style="fill:#000000;fill-opacity:1;fill-rule:nonzero;stroke:none"
         d="M 554.73428,53.9656 L 557.79553,53.9656 L 557.79553,54.48685 L 555.35428,54.48685 L 555.35428,55.96935 L 557.49553,55.96935 L 557.49553,56.49185 L 555.35428,56.49185 L 555.35428,58.62685 L 554.73428,58.62685 L 554.73428,53.9656 z" />
      <path
         id="path2796"
         style="fill:#000000;fill-opacity:1;fill-rule:nonzero;stroke:none"
         d="M 561.41178,58.62685 L 560.89053,58.62685 L 560.89053,58.0906 L 560.87678,58.0906 C 560.64178,58.50935 560.26303,58.70435 559.78053,58.70435 C 558.89178,58.70435 558.61803,58.1956 558.61803,57.4706 L 558.61803,55.25185 L 559.17303,55.25185 L 559.17303,57.5356 C 559.17303,57.94685 559.43428,58.2156 559.85803,58.2156 C 560.53053,58.2156 560.85803,57.76435 560.85803,57.1581 L 560.85803,55.25185 L 561.41178,55.25185 L 561.41178,58.62685 z" />
      <path
         id="path2798"
         style="fill:#000000;fill-opacity:1;fill-rule:nonzero;stroke:none"
         d="M 562.81553,57.56185 C 562.83553,58.0581 563.26678,58.2156 563.72303,58.2156 C 564.06928,58.2156 564.53928,58.13685 564.53928,57.7131 C 564.53928,57.28185 563.99053,57.20935 563.43553,57.0856 C 562.88803,56.96185 562.33303,56.7781 562.33303,56.1331 C 562.33303,55.4531 563.00553,55.1731 563.59303,55.1731 C 564.33678,55.1731 564.93053,55.4081 564.97678,56.2306 L 564.42178,56.2306 C 564.38303,55.79935 564.00428,55.6631 563.63803,55.6631 C 563.30553,55.6631 562.92053,55.75435 562.92053,56.09435 C 562.92053,56.49185 563.50803,56.55685 564.02303,56.6806 C 564.57803,56.80435 565.12678,56.9881 565.12678,57.6406 C 565.12678,58.4431 564.37553,58.70435 563.69053,58.70435 C 562.93303,58.70435 562.29303,58.3981 562.26053,57.56185 L 562.81553,57.56185 z" />
      <path
         id="path2800"
         style="fill:#000000;fill-opacity:1;fill-rule:nonzero;stroke:none"
         d="M 566.30803,57.56185 C 566.32803,58.0581 566.75803,58.2156 567.21553,58.2156 C 567.56178,58.2156 568.03178,58.13685 568.03178,57.7131 C 568.03178,57.28185 567.48303,57.20935 566.92803,57.0856 C 566.38053,56.96185 565.82553,56.7781 565.82553,56.1331 C 565.82553,55.4531 566.49678,55.1731 567.08553,55.1731 C 567.82928,55.1731 568.42303,55.4081 568.46928,56.2306 L 567.91428,56.2306 C 567.87428,55.79935 567.49553,55.6631 567.13053,55.6631 C 566.79803,55.6631 566.41303,55.75435 566.41303,56.09435 C 566.41303,56.49185 567.00053,56.55685 567.51553,56.6806 C 568.07053,56.80435 568.61928,56.9881 568.61928,57.6406 C 568.61928,58.4431 567.86803,58.70435 567.18303,58.70435 C 566.42553,58.70435 565.78553,58.3981 565.75303,57.56185 L 566.30803,57.56185 z" />
      <path
         id="path2802"
         style="fill:#000000;fill-opacity:1;fill-rule:nonzero;stroke:none"
         d="M 571.04803,55.6631 C 570.30303,55.6631 570.01678,56.3031 570.01678,56.9356 C 570.01678,57.6006 570.31678,58.2156 571.08053,58.2156 C 571.83803,58.2156 572.09178,57.5681 572.09178,56.90935 C 572.09178,56.27685 571.76553,55.6631 571.04803,55.6631 M 569.48053,53.9656 L 570.03553,53.9656 L 570.03553,55.7081 L 570.04928,55.7081 C 570.23178,55.33685 570.66178,55.1731 571.12553,55.1731 C 572.16303,55.1731 572.68053,55.9956 572.68053,56.94935 C 572.68053,57.90185 572.17053,58.70435 571.13803,58.70435 C 570.79303,58.70435 570.29678,58.57435 570.04928,58.1756 L 570.03553,58.1756 L 570.03553,58.62685 L 569.48053,58.62685 L 569.48053,53.9656 z" />
      <path
         id="path2804"
         style="fill:#000000;fill-opacity:1;fill-rule:nonzero;stroke:none"
         d="M 575.64928,56.8831 C 575.43428,57.0406 575.01678,57.04685 574.64428,57.11185 C 574.27928,57.17685 573.96553,57.3081 573.96553,57.71935 C 573.96553,58.08435 574.27928,58.2156 574.61803,58.2156 C 575.34928,58.2156 575.64928,57.7581 575.64928,57.4506 L 575.64928,56.8831 z M 576.55053,58.6131 C 576.45303,58.67185 576.32803,58.70435 576.15178,58.70435 C 575.86553,58.70435 575.68178,58.5481 575.68178,58.1831 C 575.37553,58.54185 574.96428,58.70435 574.49428,58.70435 C 573.88053,58.70435 573.37803,58.4306 573.37803,57.7581 C 573.37803,56.99435 573.94553,56.8306 574.52053,56.7206 C 575.13428,56.6031 575.65553,56.64185 575.65553,56.22435 C 575.65553,55.7406 575.25803,55.6631 574.90553,55.6631 C 574.43553,55.6631 574.08928,55.8056 574.06303,56.3031 L 573.50803,56.3031 C 573.54178,55.46685 574.18803,55.1731 574.93803,55.1731 C 575.54553,55.1731 576.20428,55.30935 576.20428,56.09935 L 576.20428,57.83685 C 576.20428,58.09685 576.20428,58.2156 576.38053,58.2156 C 576.42678,58.2156 576.47928,58.2081 576.55053,58.1831 L 576.55053,58.6131 z" />
      <path
         id="path2806"
         style="fill:#000000;fill-opacity:1;fill-rule:nonzero;stroke:none"
         d="M 577.32678,53.9656 L 577.88178,53.9656 L 577.88178,58.62685 L 577.32678,58.62685 L 577.32678,53.9656 z" />
      <path
         id="path2808"
         style="fill:#000000;fill-opacity:1;fill-rule:nonzero;stroke:none"
         d="M 579.00428,53.9656 L 579.55928,53.9656 L 579.55928,58.62685 L 579.00428,58.62685 L 579.00428,53.9656 z" />
      <path
         id="path2810"
         style="fill:#000000;fill-opacity:1;fill-rule:nonzero;stroke:none"
         d="M 582.17053,58.62685 L 581.57678,58.62685 L 580.32303,55.25185 L 580.94303,55.25185 L 581.89053,58.06435 L 581.90303,58.06435 L 582.82303,55.25185 L 583.40553,55.25185 L 582.17053,58.62685 z" />
      <path
         id="path2812"
         style="fill:#000000;fill-opacity:1;fill-rule:nonzero;stroke:none"
         d="M 586.48553,56.6156 C 586.46053,56.08685 586.06178,55.6631 585.51303,55.6631 C 584.93178,55.6631 584.58553,56.09935 584.54678,56.6156 L 586.48553,56.6156 z M 587.02053,57.5556 C 586.87053,58.3006 586.33553,58.70435 585.57803,58.70435 C 584.50178,58.70435 583.99178,57.9606 583.95928,56.92935 C 583.95928,55.91685 584.62553,55.1731 585.54553,55.1731 C 586.74053,55.1731 587.10553,56.28935 587.07303,57.1056 L 584.54678,57.1056 C 584.52678,57.6931 584.86053,58.2156 585.59803,58.2156 C 586.05553,58.2156 586.37428,57.9931 586.47303,57.5556 L 587.02053,57.5556 z" />
      <path
         id="path2814"
         style="fill:#000000;fill-opacity:1;fill-rule:nonzero;stroke:none"
         d="M 587.85678,55.25185 L 588.37803,55.25185 L 588.37803,55.9631 L 588.39178,55.9631 C 588.65928,55.42185 589.03178,55.1531 589.63428,55.1731 L 589.63428,55.7606 C 588.73803,55.7606 588.41178,56.26935 588.41178,57.12435 L 588.41178,58.62685 L 587.85678,58.62685 L 587.85678,55.25185 z" />
      <path
         id="path2816"
         style="fill:#000000;fill-opacity:1;fill-rule:nonzero;stroke:none"
         d="M 591.86928,55.6631 C 591.12428,55.6631 590.83678,56.3031 590.83678,56.9356 C 590.83678,57.6006 591.13803,58.2156 591.90178,58.2156 C 592.65803,58.2156 592.91303,57.5681 592.91303,56.90935 C 592.91303,56.27685 592.58678,55.6631 591.86928,55.6631 M 590.30053,53.9656 L 590.85678,53.9656 L 590.85678,55.7081 L 590.87053,55.7081 C 591.05303,55.33685 591.48303,55.1731 591.94678,55.1731 C 592.98428,55.1731 593.50053,55.9956 593.50053,56.94935 C 593.50053,57.90185 592.99178,58.70435 591.96053,58.70435 C 591.61428,58.70435 591.11803,58.57435 590.87053,58.1756 L 590.85678,58.1756 L 590.85678,58.62685 L 590.30053,58.62685 L 590.30053,53.9656 z" />
      <path
         id="path2818"
         style="fill:#000000;fill-opacity:1;fill-rule:nonzero;stroke:none"
         d="M 596.47053,56.8831 C 596.25553,57.0406 595.83678,57.04685 595.46428,57.11185 C 595.10053,57.17685 594.78678,57.3081 594.78678,57.71935 C 594.78678,58.08435 595.10053,58.2156 595.43928,58.2156 C 596.17053,58.2156 596.47053,57.7581 596.47053,57.4506 L 596.47053,56.8831 z M 597.37178,58.6131 C 597.27303,58.67185 597.14928,58.70435 596.97428,58.70435 C 596.68553,58.70435 596.50303,58.5481 596.50303,58.1831 C 596.19678,58.54185 595.78553,58.70435 595.31553,58.70435 C 594.70178,58.70435 594.19928,58.4306 594.19928,57.7581 C 594.19928,56.99435 594.76678,56.8306 595.34178,56.7206 C 595.95553,56.6031 596.47678,56.64185 596.47678,56.22435 C 596.47678,55.7406 596.07928,55.6631 595.72678,55.6631 C 595.25678,55.6631 594.91053,55.8056 594.88428,56.3031 L 594.32928,56.3031 C 594.36178,55.46685 595.00928,55.1731 595.75928,55.1731 C 596.36553,55.1731 597.02553,55.30935 597.02553,56.09935 L 597.02553,57.83685 C 597.02553,58.09685 597.02553,58.2156 597.20178,58.2156 C 597.24678,58.2156 597.29928,58.2081 597.37178,58.1831 L 597.37178,58.6131 z" />
      <path
         id="path2820"
         style="fill:#000000;fill-opacity:1;fill-rule:nonzero;stroke:none"
         d="M 598.11553,55.25185 L 598.63803,55.25185 L 598.63803,55.78685 L 598.65053,55.78685 C 598.88553,55.36935 599.26553,55.1731 599.74803,55.1731 C 600.63553,55.1731 600.90928,55.68185 600.90928,56.40685 L 600.90928,58.62685 L 600.35428,58.62685 L 600.35428,56.34185 C 600.35428,55.9306 600.09303,55.6631 599.66928,55.6631 C 598.99678,55.6631 598.67053,56.1131 598.67053,56.7206 L 598.67053,58.62685 L 598.11553,58.62685 L 598.11553,55.25185 z" />
      <path
         id="path2822"
         style="fill:#000000;fill-opacity:1;fill-rule:nonzero;stroke:none"
         d="M 603.42303,58.2156 C 604.16678,58.2156 604.45428,57.5756 604.45428,56.94185 C 604.45428,56.27685 604.15303,55.6631 603.39053,55.6631 C 602.63303,55.6631 602.37803,56.30935 602.37803,56.9681 C 602.37803,57.6006 602.70428,58.2156 603.42303,58.2156 M 604.98928,58.62685 L 604.43428,58.62685 L 604.43428,58.16935 L 604.42178,58.16935 C 604.23928,58.54185 603.80803,58.70435 603.34428,58.70435 C 602.30678,58.70435 601.79053,57.88185 601.79053,56.92935 C 601.79053,55.9756 602.29928,55.1731 603.33178,55.1731 C 603.67678,55.1731 604.17303,55.3031 604.42178,55.70185 L 604.43428,55.70185 L 604.43428,53.9656 L 604.98928,53.9656 L 604.98928,58.62685 z" />
      <path
         id="path2824"
         style="fill:#000000;fill-opacity:1;fill-rule:nonzero;stroke:none"
         d="M 505.70928,70.78435 L 507.28928,70.78435 L 506.51303,68.6106 L 506.50053,68.6106 L 505.70928,70.78435 z M 506.17303,68.04935 L 506.85928,68.04935 L 508.68053,72.7106 L 507.99428,72.7106 L 507.48553,71.30685 L 505.51428,71.30685 L 504.99178,72.7106 L 504.35178,72.7106 L 506.17303,68.04935 z" />
      <path
         id="path2826"
         style="fill:#000000;fill-opacity:1;fill-rule:nonzero;stroke:none"
         d="M 509.61303,71.6456 C 509.63303,72.14185 510.06428,72.29935 510.52053,72.29935 C 510.86678,72.29935 511.33678,72.2206 511.33678,71.7956 C 511.33678,71.3656 510.78928,71.2931 510.23428,71.16935 C 509.68553,71.0456 509.13053,70.8631 509.13053,70.21685 C 509.13053,69.53685 509.80303,69.25685 510.39053,69.25685 C 511.13428,69.25685 511.72803,69.49185 511.77428,70.31435 L 511.21928,70.31435 C 511.18053,69.8831 510.80178,69.74685 510.43553,69.74685 C 510.10303,69.74685 509.71803,69.8381 509.71803,70.17685 C 509.71803,70.5756 510.30553,70.6406 510.82178,70.76435 C 511.37678,70.88935 511.92428,71.07185 511.92428,71.72435 C 511.92428,72.52685 511.17428,72.7881 510.48803,72.7881 C 509.73178,72.7881 509.09178,72.48185 509.05928,71.6456 L 509.61303,71.6456 z" />
      <path
         id="path2828"
         style="fill:#000000;fill-opacity:1;fill-rule:nonzero;stroke:none"
         d="M 513.10678,71.6456 C 513.12553,72.14185 513.55678,72.29935 514.01303,72.29935 C 514.35928,72.29935 514.82928,72.2206 514.82928,71.7956 C 514.82928,71.3656 514.28053,71.2931 513.72678,71.16935 C 513.17803,71.0456 512.62303,70.8631 512.62303,70.21685 C 512.62303,69.53685 513.29553,69.25685 513.88303,69.25685 C 514.62678,69.25685 515.22053,69.49185 515.26678,70.31435 L 514.71303,70.31435 C 514.67303,69.8831 514.29428,69.74685 513.92803,69.74685 C 513.59553,69.74685 513.21053,69.8381 513.21053,70.17685 C 513.21053,70.5756 513.79803,70.6406 514.31303,70.76435 C 514.86803,70.88935 515.41678,71.07185 515.41678,71.72435 C 515.41678,72.52685 514.66678,72.7881 513.98053,72.7881 C 513.22303,72.7881 512.58428,72.48185 512.55178,71.6456 L 513.10678,71.6456 z" />
      <path
         id="path2830"
         style="fill:#000000;fill-opacity:1;fill-rule:nonzero;stroke:none"
         d="M 517.71428,72.29935 C 518.29553,72.29935 518.76553,71.84185 518.76553,71.0256 C 518.76553,70.2031 518.29553,69.74685 517.71428,69.74685 C 517.13428,69.74685 516.66428,70.2031 516.66428,71.0256 C 516.66428,71.84185 517.13428,72.29935 517.71428,72.29935 M 517.71428,69.25685 C 518.78553,69.25685 519.35303,70.0331 519.35303,71.0256 C 519.35303,72.01185 518.78553,72.7881 517.71428,72.7881 C 516.64428,72.7881 516.07678,72.01185 516.07678,71.0256 C 516.07678,70.0331 516.64428,69.25685 517.71428,69.25685" />
      <path
         id="path2832"
         style="fill:#000000;fill-opacity:1;fill-rule:nonzero;stroke:none"
         d="M 522.52553,70.4181 C 522.44053,69.99435 522.14678,69.74685 521.69053,69.74685 C 520.88678,69.74685 520.63928,70.37935 520.63928,71.06435 C 520.63928,71.68435 520.92053,72.29935 521.62553,72.29935 C 522.16053,72.29935 522.48053,71.9856 522.55178,71.47685 L 523.12053,71.47685 C 522.99553,72.29935 522.48053,72.7881 521.63178,72.7881 C 520.60053,72.7881 520.05178,72.0706 520.05178,71.06435 C 520.05178,70.0531 520.57303,69.25685 521.64553,69.25685 C 522.40803,69.25685 523.02178,69.6156 523.10053,70.4181 L 522.52553,70.4181 z" />
      <path
         id="path2834"
         style="fill:#000000;fill-opacity:1;fill-rule:nonzero;stroke:none"
         d="M 524.00053,69.3356 L 524.55678,69.3356 L 524.55678,72.7106 L 524.00053,72.7106 L 524.00053,69.3356 z M 524.55678,68.7281 L 524.00053,68.7281 L 524.00053,68.04935 L 524.55678,68.04935 L 524.55678,68.7281 z" />
      <path
         id="path2836"
         style="fill:#000000;fill-opacity:1;fill-rule:nonzero;stroke:none"
         d="M 527.73553,70.96685 C 527.51928,71.1231 527.10178,71.1306 526.73053,71.1956 C 526.36428,71.2606 526.05053,71.3906 526.05053,71.8031 C 526.05053,72.1681 526.36428,72.29935 526.70303,72.29935 C 527.43428,72.29935 527.73553,71.84185 527.73553,71.53435 L 527.73553,70.96685 z M 528.63553,72.69685 C 528.53803,72.7556 528.41303,72.7881 528.23803,72.7881 C 527.95053,72.7881 527.76803,72.63185 527.76803,72.26685 C 527.46053,72.6256 527.04928,72.7881 526.58053,72.7881 C 525.96553,72.7881 525.46303,72.51435 525.46303,71.84185 C 525.46303,71.0781 526.03178,70.91435 526.60553,70.80435 C 527.21928,70.68685 527.74178,70.7256 527.74178,70.3081 C 527.74178,69.82435 527.34303,69.74685 526.99053,69.74685 C 526.52178,69.74685 526.17553,69.88935 526.14928,70.3856 L 525.59428,70.3856 C 525.62678,69.5506 526.27303,69.25685 527.02303,69.25685 C 527.63053,69.25685 528.29053,69.3931 528.29053,70.1831 L 528.29053,71.9206 C 528.29053,72.18185 528.29053,72.29935 528.46678,72.29935 C 528.51178,72.29935 528.56428,72.29185 528.63553,72.26685 L 528.63553,72.69685 z" />
      <path
         id="path2838"
         style="fill:#000000;fill-opacity:1;fill-rule:nonzero;stroke:none"
         d="M 530.15053,69.3356 L 530.82303,69.3356 L 530.82303,69.82435 L 530.15053,69.82435 L 530.15053,71.9206 C 530.15053,72.17435 530.22178,72.2206 530.56803,72.2206 L 530.82303,72.2206 L 530.82303,72.7106 L 530.39803,72.7106 C 529.82428,72.7106 529.59553,72.5931 529.59553,71.97185 L 529.59553,69.82435 L 529.02053,69.82435 L 529.02053,69.3356 L 529.59553,69.3356 L 529.59553,68.3231 L 530.15053,68.3231 L 530.15053,69.3356 z" />
      <path
         id="path2840"
         style="fill:#000000;fill-opacity:1;fill-rule:nonzero;stroke:none"
         d="M 531.69803,69.3356 L 532.25303,69.3356 L 532.25303,72.7106 L 531.69803,72.7106 L 531.69803,69.3356 z M 532.25178,68.7281 L 531.69678,68.7281 L 531.69678,68.04935 L 532.25178,68.04935 L 532.25178,68.7281 z" />
      <path
         id="path2842"
         style="fill:#000000;fill-opacity:1;fill-rule:nonzero;stroke:none"
         d="M 534.79928,72.29935 C 535.37928,72.29935 535.84928,71.84185 535.84928,71.0256 C 535.84928,70.2031 535.37928,69.74685 534.79928,69.74685 C 534.21678,69.74685 533.74803,70.2031 533.74803,71.0256 C 533.74803,71.84185 534.21678,72.29935 534.79928,72.29935 M 534.79928,69.25685 C 535.86928,69.25685 536.43678,70.0331 536.43678,71.0256 C 536.43678,72.01185 535.86928,72.7881 534.79928,72.7881 C 533.72678,72.7881 533.15928,72.01185 533.15928,71.0256 C 533.15928,70.0331 533.72678,69.25685 534.79928,69.25685" />
      <path
         id="path2844"
         style="fill:#000000;fill-opacity:1;fill-rule:nonzero;stroke:none"
         d="M 537.31803,69.3356 L 537.84053,69.3356 L 537.84053,69.8706 L 537.85303,69.8706 C 538.08803,69.4531 538.46678,69.25685 538.94928,69.25685 C 539.83803,69.25685 540.11178,69.7656 540.11178,70.4906 L 540.11178,72.7106 L 539.55678,72.7106 L 539.55678,70.4256 C 539.55678,70.01435 539.29553,69.74685 538.87178,69.74685 C 538.19928,69.74685 537.87303,70.19685 537.87303,70.80435 L 537.87303,72.7106 L 537.31803,72.7106 L 537.31803,69.3356 z" />
      <path
         id="path2846"
         style="fill:#000000;fill-opacity:1;fill-rule:nonzero;stroke:none"
         d="M 546.00678,69.4131 C 545.93553,68.7481 545.49053,68.4606 544.85178,68.4606 C 544.32928,68.4606 543.80678,68.64935 543.80678,69.25685 C 543.80678,69.83185 544.55053,69.9156 545.30178,70.0856 C 546.04553,70.2556 546.79053,70.51685 546.79053,71.4306 C 546.79053,72.4231 545.81803,72.8206 544.96928,72.8206 C 543.92428,72.8206 543.04303,72.31185 543.04303,71.1756 L 543.63053,71.1756 C 543.63053,71.95935 544.28303,72.29935 544.98803,72.29935 C 545.54928,72.29935 546.17053,72.1231 546.17053,71.4506 C 546.17053,70.8106 545.42553,70.69935 544.68178,70.5356 C 543.93678,70.3731 543.18678,70.15685 543.18678,69.3031 C 543.18678,68.3556 544.02803,67.9381 544.87678,67.9381 C 545.83053,67.9381 546.55553,68.3881 546.59428,69.4131 L 546.00678,69.4131 z" />
      <path
         id="path2848"
         style="fill:#000000;fill-opacity:1;fill-rule:nonzero;stroke:none"
         d="M 550.47178,72.7106 L 549.94928,72.7106 L 549.94928,72.17435 L 549.93678,72.17435 C 549.70178,72.5931 549.32303,72.7881 548.83928,72.7881 C 547.95178,72.7881 547.67803,72.27935 547.67803,71.55435 L 547.67803,69.3356 L 548.23178,69.3356 L 548.23178,71.61935 C 548.23178,72.0306 548.49428,72.29935 548.91803,72.29935 C 549.59053,72.29935 549.91678,71.8481 549.91678,71.2406 L 549.91678,69.3356 L 550.47178,69.3356 L 550.47178,72.7106 z" />
      <path
         id="path2850"
         style="fill:#000000;fill-opacity:1;fill-rule:nonzero;stroke:none"
         d="M 551.56803,69.3356 L 552.12303,69.3356 L 552.12303,72.7106 L 551.56803,72.7106 L 551.56803,69.3356 z M 552.12303,68.7281 L 551.56803,68.7281 L 551.56803,68.04935 L 552.12303,68.04935 L 552.12303,68.7281 z" />
      <path
         id="path2852"
         style="fill:#000000;fill-opacity:1;fill-rule:nonzero;stroke:none"
         d="M 553.55303,71.6456 C 553.57303,72.14185 554.00303,72.29935 554.46053,72.29935 C 554.80678,72.29935 555.27678,72.2206 555.27678,71.7956 C 555.27678,71.3656 554.72803,71.2931 554.17303,71.16935 C 553.62428,71.0456 553.06928,70.8631 553.06928,70.21685 C 553.06928,69.53685 553.74303,69.25685 554.32928,69.25685 C 555.07428,69.25685 555.66803,69.49185 555.71303,70.31435 L 555.15928,70.31435 C 555.12053,69.8831 554.74053,69.74685 554.37553,69.74685 C 554.04303,69.74685 553.65803,69.8381 553.65803,70.17685 C 553.65803,70.5756 554.24428,70.6406 554.76053,70.76435 C 555.31553,70.88935 555.86303,71.07185 555.86303,71.72435 C 555.86303,72.52685 555.11303,72.7881 554.42678,72.7881 C 553.67053,72.7881 553.03053,72.48185 552.99803,71.6456 L 553.55303,71.6456 z" />
      <path
         id="path2854"
         style="fill:#000000;fill-opacity:1;fill-rule:nonzero;stroke:none"
         d="M 557.04553,71.6456 C 557.06428,72.14185 557.49553,72.29935 557.95303,72.29935 C 558.29928,72.29935 558.76803,72.2206 558.76803,71.7956 C 558.76803,71.3656 558.22053,71.2931 557.66553,71.16935 C 557.11678,71.0456 556.56303,70.8631 556.56303,70.21685 C 556.56303,69.53685 557.23428,69.25685 557.82178,69.25685 C 558.56553,69.25685 559.16053,69.49185 559.20553,70.31435 L 558.65178,70.31435 C 558.61178,69.8831 558.23303,69.74685 557.86803,69.74685 C 557.53553,69.74685 557.14928,69.8381 557.14928,70.17685 C 557.14928,70.5756 557.73803,70.6406 558.25303,70.76435 C 558.80803,70.88935 559.35678,71.07185 559.35678,71.72435 C 559.35678,72.52685 558.60553,72.7881 557.92053,72.7881 C 557.16303,72.7881 556.52303,72.48185 556.49053,71.6456 L 557.04553,71.6456 z" />
      <path
         id="path2856"
         style="fill:#000000;fill-opacity:1;fill-rule:nonzero;stroke:none"
         d="M 562.54178,70.69935 C 562.51553,70.1706 562.11803,69.74685 561.56928,69.74685 C 560.98803,69.74685 560.64303,70.1831 560.60303,70.69935 L 562.54178,70.69935 z M 563.07678,71.63935 C 562.92678,72.38435 562.39178,72.7881 561.63428,72.7881 C 560.55678,72.7881 560.04803,72.04435 560.01553,71.0131 C 560.01553,70.0006 560.68053,69.25685 561.60178,69.25685 C 562.79678,69.25685 563.16178,70.3731 563.12928,71.18935 L 560.60303,71.18935 C 560.58428,71.77685 560.91678,72.29935 561.65428,72.29935 C 562.11178,72.29935 562.43178,72.07685 562.52803,71.63935 L 563.07678,71.63935 z" />
      <path
         id="path2858"
         style="fill:#000000;fill-opacity:1;fill-rule:nonzero;stroke:none"
         d="M 567.42428,72.29935 C 568.16928,72.29935 568.45553,71.65935 568.45553,71.0256 C 568.45553,70.35935 568.15553,69.74685 567.39178,69.74685 C 566.63428,69.74685 566.38053,70.3931 566.38053,71.05185 C 566.38053,71.68435 566.70678,72.29935 567.42428,72.29935 M 568.99178,72.7106 L 568.43678,72.7106 L 568.43678,72.2531 L 568.42428,72.2531 C 568.24053,72.6256 567.80928,72.7881 567.34678,72.7881 C 566.30803,72.7881 565.79303,71.9656 565.79303,71.0131 C 565.79303,70.05935 566.30178,69.25685 567.33428,69.25685 C 567.67928,69.25685 568.17553,69.38685 568.42428,69.7856 L 568.43678,69.7856 L 568.43678,68.04935 L 568.99178,68.04935 L 568.99178,72.7106 z" />
      <path
         id="path2860"
         style="fill:#000000;fill-opacity:1;fill-rule:nonzero;stroke:none"
         d="M 572.41928,70.69935 C 572.39178,70.1706 571.99428,69.74685 571.44678,69.74685 C 570.86553,69.74685 570.51928,70.1831 570.47928,70.69935 L 572.41928,70.69935 z M 572.95428,71.63935 C 572.80428,72.38435 572.26803,72.7881 571.51053,72.7881 C 570.43428,72.7881 569.92553,72.04435 569.89303,71.0131 C 569.89303,70.0006 570.55803,69.25685 571.47803,69.25685 C 572.67303,69.25685 573.03803,70.3731 573.00553,71.18935 L 570.47928,71.18935 C 570.46053,71.77685 570.79303,72.29935 571.53053,72.29935 C 571.98803,72.29935 572.30803,72.07685 572.40553,71.63935 L 572.95428,71.63935 z" />
      <path
         id="path2862"
         style="fill:#000000;fill-opacity:1;fill-rule:nonzero;stroke:none"
         d="M 575.94428,68.04935 L 579.00553,68.04935 L 579.00553,68.5706 L 576.56428,68.5706 L 576.56428,70.0531 L 578.70553,70.0531 L 578.70553,70.5756 L 576.56428,70.5756 L 576.56428,72.7106 L 575.94428,72.7106 L 575.94428,68.04935 z" />
      <path
         id="path2864"
         style="fill:#000000;fill-opacity:1;fill-rule:nonzero;stroke:none"
         d="M 581.28303,72.29935 C 581.86428,72.29935 582.33428,71.84185 582.33428,71.0256 C 582.33428,70.2031 581.86428,69.74685 581.28303,69.74685 C 580.70178,69.74685 580.23303,70.2031 580.23303,71.0256 C 580.23303,71.84185 580.70178,72.29935 581.28303,72.29935 M 581.28303,69.25685 C 582.35428,69.25685 582.92178,70.0331 582.92178,71.0256 C 582.92178,72.01185 582.35428,72.7881 581.28303,72.7881 C 580.21303,72.7881 579.64553,72.01185 579.64553,71.0256 C 579.64553,70.0331 580.21303,69.25685 581.28303,69.25685" />
      <path
         id="path2866"
         style="fill:#000000;fill-opacity:1;fill-rule:nonzero;stroke:none"
         d="M 585.25928,72.29935 C 585.84053,72.29935 586.31053,71.84185 586.31053,71.0256 C 586.31053,70.2031 585.84053,69.74685 585.25928,69.74685 C 584.67803,69.74685 584.20803,70.2031 584.20803,71.0256 C 584.20803,71.84185 584.67803,72.29935 585.25928,72.29935 M 585.25928,69.25685 C 586.32928,69.25685 586.89678,70.0331 586.89678,71.0256 C 586.89678,72.01185 586.32928,72.7881 585.25928,72.7881 C 584.18803,72.7881 583.62053,72.01185 583.62053,71.0256 C 583.62053,70.0331 584.18803,69.25685 585.25928,69.25685" />
      <path
         id="path2868"
         style="fill:#000000;fill-opacity:1;fill-rule:nonzero;stroke:none"
         d="M 588.54928,69.3356 L 589.22303,69.3356 L 589.22303,69.82435 L 588.54928,69.82435 L 588.54928,71.9206 C 588.54928,72.17435 588.62178,72.2206 588.96803,72.2206 L 589.22303,72.2206 L 589.22303,72.7106 L 588.79678,72.7106 C 588.22303,72.7106 587.99428,72.5931 587.99428,71.97185 L 587.99428,69.82435 L 587.42053,69.82435 L 587.42053,69.3356 L 587.99428,69.3356 L 587.99428,68.3231 L 588.54928,68.3231 L 588.54928,69.3356 z" />
      <path
         id="path2870"
         style="fill:#000000;fill-opacity:1;fill-rule:nonzero;stroke:none"
         d="M 591.65428,69.74685 C 590.90928,69.74685 590.62178,70.3856 590.62178,71.01935 C 590.62178,71.68435 590.92178,72.29935 591.68553,72.29935 C 592.44303,72.29935 592.69803,71.65185 592.69803,70.9931 C 592.69803,70.35935 592.37178,69.74685 591.65428,69.74685 M 590.08553,68.04935 L 590.64178,68.04935 L 590.64178,69.79185 L 590.65428,69.79185 C 590.83803,69.4206 591.26803,69.25685 591.73178,69.25685 C 592.76928,69.25685 593.28553,70.07935 593.28553,71.03185 C 593.28553,71.9856 592.77678,72.7881 591.74553,72.7881 C 591.39928,72.7881 590.90303,72.6581 590.65428,72.25935 L 590.64178,72.25935 L 590.64178,72.7106 L 590.08553,72.7106 L 590.08553,68.04935 z" />
      <path
         id="path2872"
         style="fill:#000000;fill-opacity:1;fill-rule:nonzero;stroke:none"
         d="M 596.25553,70.96685 C 596.04053,71.1231 595.62178,71.1306 595.24928,71.1956 C 594.88553,71.2606 594.57178,71.3906 594.57178,71.8031 C 594.57178,72.1681 594.88553,72.29935 595.22428,72.29935 C 595.95553,72.29935 596.25553,71.84185 596.25553,71.53435 L 596.25553,70.96685 z M 597.15553,72.69685 C 597.05803,72.7556 596.93428,72.7881 596.75803,72.7881 C 596.47053,72.7881 596.28803,72.63185 596.28803,72.26685 C 595.98178,72.6256 595.57053,72.7881 595.10053,72.7881 C 594.48678,72.7881 593.98428,72.51435 593.98428,71.84185 C 593.98428,71.0781 594.55178,70.91435 595.12553,70.80435 C 595.73928,70.68685 596.26303,70.7256 596.26303,70.3081 C 596.26303,69.82435 595.86428,69.74685 595.51178,69.74685 C 595.04178,69.74685 594.69553,69.88935 594.66928,70.3856 L 594.11428,70.3856 C 594.14678,69.5506 594.79303,69.25685 595.54428,69.25685 C 596.15053,69.25685 596.81053,69.3931 596.81053,70.1831 L 596.81053,71.9206 C 596.81053,72.18185 596.81053,72.29935 596.98678,72.29935 C 597.03178,72.29935 597.08553,72.29185 597.15553,72.26685 L 597.15553,72.69685 z" />
      <path
         id="path2874"
         style="fill:#000000;fill-opacity:1;fill-rule:nonzero;stroke:none"
         d="M 597.93303,68.04935 L 598.48803,68.04935 L 598.48803,72.7106 L 597.93303,72.7106 L 597.93303,68.04935 z" />
      <path
         id="path2876"
         style="fill:#000000;fill-opacity:1;fill-rule:nonzero;stroke:none"
         d="M 599.61178,68.04935 L 600.16678,68.04935 L 600.16678,72.7106 L 599.61178,72.7106 L 599.61178,68.04935 z" />
      <path
         id="path2878"
         style="fill:#000000;fill-opacity:1;fill-rule:nonzero;stroke:none"
         d="M 496.73178,84.8681 L 498.31053,84.8681 L 497.53428,82.69435 L 497.52178,82.69435 L 496.73178,84.8681 z M 497.19428,82.1331 L 497.88053,82.1331 L 499.70178,86.7931 L 499.01553,86.7931 L 498.50678,85.38935 L 496.53553,85.38935 L 496.01303,86.7931 L 495.37303,86.7931 L 497.19428,82.1331 z" />
      <path
         id="path2880"
         style="fill:#000000;fill-opacity:1;fill-rule:nonzero;stroke:none"
         d="M 500.63553,85.72935 C 500.65428,86.2256 501.08553,86.38185 501.54178,86.38185 C 501.88803,86.38185 502.35803,86.30435 502.35803,85.87935 C 502.35803,85.4481 501.81053,85.37685 501.25553,85.2531 C 500.70678,85.12935 500.15178,84.9456 500.15178,84.3006 C 500.15178,83.6206 500.82428,83.3406 501.41178,83.3406 C 502.15553,83.3406 502.75053,83.5756 502.79553,84.3981 L 502.24053,84.3981 C 502.20178,83.96685 501.82303,83.8306 501.45678,83.8306 C 501.12428,83.8306 500.73928,83.92185 500.73928,84.26185 C 500.73928,84.65935 501.32678,84.72435 501.84303,84.8481 C 502.39803,84.97185 502.94553,85.15435 502.94553,85.8081 C 502.94553,86.6106 502.19553,86.87185 501.50928,86.87185 C 500.75178,86.87185 500.11303,86.5656 500.08053,85.72935 L 500.63553,85.72935 z" />
      <path
         id="path2882"
         style="fill:#000000;fill-opacity:1;fill-rule:nonzero;stroke:none"
         d="M 504.12678,85.72935 C 504.14678,86.2256 504.57803,86.38185 505.03428,86.38185 C 505.38053,86.38185 505.85053,86.30435 505.85053,85.87935 C 505.85053,85.4481 505.30303,85.37685 504.74803,85.2531 C 504.19928,85.12935 503.64428,84.9456 503.64428,84.3006 C 503.64428,83.6206 504.31678,83.3406 504.90428,83.3406 C 505.64928,83.3406 506.24178,83.5756 506.28803,84.3981 L 505.73303,84.3981 C 505.69428,83.96685 505.31553,83.8306 504.95053,83.8306 C 504.61678,83.8306 504.23178,83.92185 504.23178,84.26185 C 504.23178,84.65935 504.81928,84.72435 505.33553,84.8481 C 505.89053,84.97185 506.43803,85.15435 506.43803,85.8081 C 506.43803,86.6106 505.68803,86.87185 505.00178,86.87185 C 504.24553,86.87185 503.60553,86.5656 503.57303,85.72935 L 504.12678,85.72935 z" />
      <path
         id="path2884"
         style="fill:#000000;fill-opacity:1;fill-rule:nonzero;stroke:none"
         d="M 508.73553,86.38185 C 509.31678,86.38185 509.78678,85.9256 509.78678,85.10935 C 509.78678,84.28685 509.31678,83.8306 508.73553,83.8306 C 508.15553,83.8306 507.68553,84.28685 507.68553,85.10935 C 507.68553,85.9256 508.15553,86.38185 508.73553,86.38185 M 508.73553,83.3406 C 509.80678,83.3406 510.37428,84.11685 510.37428,85.10935 C 510.37428,86.09435 509.80678,86.87185 508.73553,86.87185 C 507.66553,86.87185 507.09803,86.09435 507.09803,85.10935 C 507.09803,84.11685 507.66553,83.3406 508.73553,83.3406" />
      <path
         id="path2886"
         style="fill:#000000;fill-opacity:1;fill-rule:nonzero;stroke:none"
         d="M 513.54678,84.50185 C 513.46303,84.0781 513.16928,83.8306 512.71178,83.8306 C 511.90928,83.8306 511.66053,84.4631 511.66053,85.1481 C 511.66053,85.76935 511.94178,86.38185 512.64678,86.38185 C 513.18178,86.38185 513.50178,86.06935 513.57428,85.5606 L 514.14178,85.5606 C 514.01678,86.38185 513.50178,86.87185 512.65303,86.87185 C 511.62178,86.87185 511.07303,86.15435 511.07303,85.1481 C 511.07303,84.1356 511.59553,83.3406 512.66553,83.3406 C 513.42928,83.3406 514.04303,83.69935 514.12178,84.50185 L 513.54678,84.50185 z" />
      <path
         id="path2888"
         style="fill:#000000;fill-opacity:1;fill-rule:nonzero;stroke:none"
         d="M 515.02303,83.41935 L 515.57803,83.41935 L 515.57803,86.79435 L 515.02303,86.79435 L 515.02303,83.41935 z M 515.57803,82.81185 L 515.02303,82.81185 L 515.02303,82.1331 L 515.57803,82.1331 L 515.57803,82.81185 z" />
      <path
         id="path2890"
         style="fill:#000000;fill-opacity:1;fill-rule:nonzero;stroke:none"
         d="M 518.75678,85.0506 C 518.54178,85.2081 518.12303,85.21435 517.75053,85.27935 C 517.38553,85.34435 517.07178,85.47435 517.07178,85.8856 C 517.07178,86.25185 517.38553,86.38185 517.72428,86.38185 C 518.45553,86.38185 518.75678,85.9256 518.75678,85.6181 L 518.75678,85.0506 z M 519.65678,86.7806 C 519.55928,86.83935 519.43553,86.87185 519.25928,86.87185 C 518.97178,86.87185 518.78928,86.7156 518.78928,86.34935 C 518.48178,86.70935 518.07178,86.87185 517.60053,86.87185 C 516.98678,86.87185 516.48553,86.5981 516.48553,85.9256 C 516.48553,85.16185 517.05303,84.9981 517.62678,84.8881 C 518.24053,84.7706 518.76303,84.80935 518.76303,84.39185 C 518.76303,83.9081 518.36428,83.8306 518.01303,83.8306 C 517.54178,83.8306 517.19678,83.9731 517.17053,84.46935 L 516.61553,84.46935 C 516.64803,83.63435 517.29428,83.3406 518.04553,83.3406 C 518.65178,83.3406 519.31178,83.47685 519.31178,84.26685 L 519.31178,86.00435 C 519.31178,86.26435 519.31178,86.38185 519.48803,86.38185 C 519.53303,86.38185 519.58553,86.3756 519.65678,86.34935 L 519.65678,86.7806 z" />
      <path
         id="path2892"
         style="fill:#000000;fill-opacity:1;fill-rule:nonzero;stroke:none"
         d="M 520.12678,86.36935 L 522.16428,83.9081 L 520.25803,83.9081 L 520.25803,83.41935 L 522.88178,83.41935 L 522.88178,83.79685 L 520.81928,86.30435 L 522.97303,86.30435 L 522.97303,86.7931 L 520.12678,86.7931 L 520.12678,86.36935 z" />
      <path
         id="path2894"
         style="fill:#000000;fill-opacity:1;fill-rule:nonzero;stroke:none"
         d="M 523.79553,83.41935 L 524.35053,83.41935 L 524.35053,86.79435 L 523.79553,86.79435 L 523.79553,83.41935 z M 524.35053,82.81185 L 523.79553,82.81185 L 523.79553,82.1331 L 524.35053,82.1331 L 524.35053,82.81185 z" />
      <path
         id="path2896"
         style="fill:#000000;fill-opacity:1;fill-rule:nonzero;stroke:none"
         d="M 526.89678,86.38185 C 527.47803,86.38185 527.94803,85.9256 527.94803,85.10935 C 527.94803,84.28685 527.47803,83.8306 526.89678,83.8306 C 526.31553,83.8306 525.84553,84.28685 525.84553,85.10935 C 525.84553,85.9256 526.31553,86.38185 526.89678,86.38185 M 526.89678,83.3406 C 527.96803,83.3406 528.53553,84.11685 528.53553,85.10935 C 528.53553,86.09435 527.96803,86.87185 526.89678,86.87185 C 525.82553,86.87185 525.25803,86.09435 525.25803,85.10935 C 525.25803,84.11685 525.82553,83.3406 526.89678,83.3406" />
      <path
         id="path2898"
         style="fill:#000000;fill-opacity:1;fill-rule:nonzero;stroke:none"
         d="M 529.41678,83.41935 L 529.93928,83.41935 L 529.93928,83.95435 L 529.95178,83.95435 C 530.18678,83.5356 530.56553,83.3406 531.04803,83.3406 C 531.93553,83.3406 532.21053,83.84935 532.21053,84.57435 L 532.21053,86.7931 L 531.65553,86.7931 L 531.65553,84.5081 C 531.65553,84.09685 531.39428,83.8306 530.97053,83.8306 C 530.29803,83.8306 529.97178,84.2806 529.97178,84.8881 L 529.97178,86.7931 L 529.41678,86.7931 L 529.41678,83.41935 z" />
      <path
         id="path2900"
         style="fill:#000000;fill-opacity:1;fill-rule:nonzero;stroke:none"
         d="M 535.61803,84.7831 C 535.59178,84.25435 535.19428,83.8306 534.64553,83.8306 C 534.06428,83.8306 533.71803,84.26685 533.67928,84.7831 L 535.61803,84.7831 z M 536.15303,85.7231 C 536.00303,86.46685 535.46803,86.87185 534.71053,86.87185 C 533.63303,86.87185 533.12428,86.1281 533.09178,85.09685 C 533.09178,84.08435 533.75678,83.3406 534.67803,83.3406 C 535.87303,83.3406 536.23803,84.45685 536.20553,85.2731 L 533.67928,85.2731 C 533.65928,85.8606 533.99303,86.38185 534.73053,86.38185 C 535.18678,86.38185 535.50678,86.1606 535.60553,85.7231 L 536.15303,85.7231 z" />
      <path
         id="path2902"
         style="fill:#000000;fill-opacity:1;fill-rule:nonzero;stroke:none"
         d="M 541.83928,83.49685 C 541.76678,82.8306 541.32303,82.54435 540.68303,82.54435 C 540.16178,82.54435 539.63928,82.7331 539.63928,83.3406 C 539.63928,83.9156 540.38303,83.99935 541.13428,84.16935 C 541.87803,84.33935 542.62178,84.59935 542.62178,85.51435 C 542.62178,86.50685 541.64928,86.90435 540.80053,86.90435 C 539.75678,86.90435 538.87553,86.3956 538.87553,85.25935 L 539.46303,85.25935 C 539.46303,86.0431 540.11553,86.38185 540.82178,86.38185 C 541.38178,86.38185 542.00178,86.20685 542.00178,85.53435 C 542.00178,84.89435 541.25803,84.7831 540.51303,84.61935 C 539.76928,84.45685 539.01928,84.2406 539.01928,83.38685 C 539.01928,82.43935 539.86178,82.02185 540.70928,82.02185 C 541.66303,82.02185 542.38678,82.47185 542.42678,83.49685 L 541.83928,83.49685 z" />
      <path
         id="path2904"
         style="fill:#000000;fill-opacity:1;fill-rule:nonzero;stroke:none"
         d="M 545.03178,86.7931 L 544.43678,86.7931 L 543.18303,83.41935 L 543.80428,83.41935 L 544.75053,86.23185 L 544.76428,86.23185 L 545.68428,83.41935 L 546.26553,83.41935 L 545.03178,86.7931 z" />
      <path
         id="path2906"
         style="fill:#000000;fill-opacity:1;fill-rule:nonzero;stroke:none"
         d="M 547.03553,83.41935 L 547.59053,83.41935 L 547.59053,86.79435 L 547.03553,86.79435 L 547.03553,83.41935 z M 547.59053,82.81185 L 547.03553,82.81185 L 547.03553,82.1331 L 547.59053,82.1331 L 547.59053,82.81185 z" />
      <path
         id="path2908"
         style="fill:#000000;fill-opacity:1;fill-rule:nonzero;stroke:none"
         d="M 548.40553,86.36935 L 550.44303,83.9081 L 548.53678,83.9081 L 548.53678,83.41935 L 551.16053,83.41935 L 551.16053,83.79685 L 549.09803,86.30435 L 551.25303,86.30435 L 551.25303,86.7931 L 548.40553,86.7931 L 548.40553,86.36935 z" />
      <path
         id="path2910"
         style="fill:#000000;fill-opacity:1;fill-rule:nonzero;stroke:none"
         d="M 551.76803,86.36935 L 553.80428,83.9081 L 551.89928,83.9081 L 551.89928,83.41935 L 554.52303,83.41935 L 554.52303,83.79685 L 552.46053,86.30435 L 554.61428,86.30435 L 554.61428,86.7931 L 551.76803,86.7931 L 551.76803,86.36935 z" />
      <path
         id="path2912"
         style="fill:#000000;fill-opacity:1;fill-rule:nonzero;stroke:none"
         d="M 557.74803,84.7831 C 557.72053,84.25435 557.32303,83.8306 556.77553,83.8306 C 556.19428,83.8306 555.84803,84.26685 555.80803,84.7831 L 557.74803,84.7831 z M 558.28303,85.7231 C 558.13303,86.46685 557.59803,86.87185 556.84053,86.87185 C 555.76303,86.87185 555.25428,86.1281 555.22178,85.09685 C 555.22178,84.08435 555.88678,83.3406 556.80803,83.3406 C 558.00178,83.3406 558.36803,84.45685 558.33553,85.2731 L 555.80803,85.2731 C 555.78928,85.8606 556.12178,86.38185 556.85928,86.38185 C 557.31678,86.38185 557.63678,86.1606 557.73428,85.7231 L 558.28303,85.7231 z" />
      <path
         id="path2914"
         style="fill:#000000;fill-opacity:1;fill-rule:nonzero;stroke:none"
         d="M 559.11803,83.41935 L 559.64053,83.41935 L 559.64053,84.12935 L 559.65428,84.12935 C 559.92178,83.5881 560.29428,83.3206 560.89428,83.3406 L 560.89428,83.9281 C 560.00053,83.9281 559.67303,84.43685 559.67303,85.29185 L 559.67303,86.7931 L 559.11803,86.7931 L 559.11803,83.41935 z" />
      <path
         id="path2916"
         style="fill:#000000;fill-opacity:1;fill-rule:nonzero;stroke:none"
         d="M 563.62928,85.0506 C 563.41303,85.2081 562.99553,85.21435 562.62303,85.27935 C 562.25803,85.34435 561.94428,85.47435 561.94428,85.8856 C 561.94428,86.25185 562.25803,86.38185 562.59803,86.38185 C 563.32928,86.38185 563.62928,85.9256 563.62928,85.6181 L 563.62928,85.0506 z M 564.53053,86.7806 C 564.43178,86.83935 564.30803,86.87185 564.13178,86.87185 C 563.84428,86.87185 563.66178,86.7156 563.66178,86.34935 C 563.35553,86.70935 562.94428,86.87185 562.47303,86.87185 C 561.85928,86.87185 561.35803,86.5981 561.35803,85.9256 C 561.35803,85.16185 561.92553,84.9981 562.50053,84.8881 C 563.11303,84.7706 563.63553,84.80935 563.63553,84.39185 C 563.63553,83.9081 563.23803,83.8306 562.88553,83.8306 C 562.41553,83.8306 562.06928,83.9731 562.04303,84.46935 L 561.48803,84.46935 C 561.52053,83.63435 562.16678,83.3406 562.91803,83.3406 C 563.52428,83.3406 564.18428,83.47685 564.18428,84.26685 L 564.18428,86.00435 C 564.18428,86.26435 564.18428,86.38185 564.36053,86.38185 C 564.40678,86.38185 564.45803,86.3756 564.53053,86.34935 L 564.53053,86.7806 z" />
      <path
         id="path2918"
         style="fill:#000000;fill-opacity:1;fill-rule:nonzero;stroke:none"
         d="M 568.76678,86.38185 C 569.51053,86.38185 569.79803,85.7431 569.79803,85.10935 C 569.79803,84.4431 569.49803,83.8306 568.73428,83.8306 C 567.97678,83.8306 567.72178,84.4756 567.72178,85.1356 C 567.72178,85.76935 568.04803,86.38185 568.76678,86.38185 M 570.33303,86.7931 L 569.77803,86.7931 L 569.77803,86.33685 L 569.76553,86.33685 C 569.58303,86.70935 569.15178,86.87185 568.68803,86.87185 C 567.65053,86.87185 567.13428,86.04935 567.13428,85.09685 C 567.13428,84.1431 567.64303,83.3406 568.67553,83.3406 C 569.02053,83.3406 569.51803,83.4706 569.76553,83.86935 L 569.77803,83.86935 L 569.77803,82.1331 L 570.33303,82.1331 L 570.33303,86.7931 z" />
      <path
         id="path2920"
         style="fill:#000000;fill-opacity:1;fill-rule:nonzero;stroke:none"
         d="M 571.44928,83.41935 L 572.00428,83.41935 L 572.00428,86.79435 L 571.44928,86.79435 L 571.44928,83.41935 z M 572.00428,82.81185 L 571.44928,82.81185 L 571.44928,82.1331 L 572.00428,82.1331 L 572.00428,82.81185 z" />
      <path
         id="path2922"
         style="fill:#000000;fill-opacity:1;fill-rule:nonzero;stroke:none"
         d="M 575.22928,82.1331 L 578.29053,82.1331 L 578.29053,82.65435 L 575.84928,82.65435 L 575.84928,84.1356 L 577.99053,84.1356 L 577.99053,84.65935 L 575.84928,84.65935 L 575.84928,86.7931 L 575.22928,86.7931 L 575.22928,82.1331 z" />
      <path
         id="path2924"
         style="fill:#000000;fill-opacity:1;fill-rule:nonzero;stroke:none"
         d="M 580.56928,86.38185 C 581.15053,86.38185 581.62053,85.9256 581.62053,85.10935 C 581.62053,84.28685 581.15053,83.8306 580.56928,83.8306 C 579.98803,83.8306 579.51803,84.28685 579.51803,85.10935 C 579.51803,85.9256 579.98803,86.38185 580.56928,86.38185 M 580.56928,83.3406 C 581.63928,83.3406 582.20803,84.11685 582.20803,85.10935 C 582.20803,86.09435 581.63928,86.87185 580.56928,86.87185 C 579.49803,86.87185 578.93053,86.09435 578.93053,85.10935 C 578.93053,84.11685 579.49803,83.3406 580.56928,83.3406" />
      <path
         id="path2926"
         style="fill:#000000;fill-opacity:1;fill-rule:nonzero;stroke:none"
         d="M 584.54428,86.38185 C 585.12553,86.38185 585.59553,85.9256 585.59553,85.10935 C 585.59553,84.28685 585.12553,83.8306 584.54428,83.8306 C 583.96303,83.8306 583.49303,84.28685 583.49303,85.10935 C 583.49303,85.9256 583.96303,86.38185 584.54428,86.38185 M 584.54428,83.3406 C 585.61553,83.3406 586.18303,84.11685 586.18303,85.10935 C 586.18303,86.09435 585.61553,86.87185 584.54428,86.87185 C 583.47428,86.87185 582.90678,86.09435 582.90678,85.10935 C 582.90678,84.11685 583.47428,83.3406 584.54428,83.3406" />
      <path
         id="path2928"
         style="fill:#000000;fill-opacity:1;fill-rule:nonzero;stroke:none"
         d="M 587.83428,83.41935 L 588.50678,83.41935 L 588.50678,83.9081 L 587.83428,83.9081 L 587.83428,86.00435 C 587.83428,86.2581 587.90678,86.30435 588.25303,86.30435 L 588.50678,86.30435 L 588.50678,86.7931 L 588.08303,86.7931 C 587.50803,86.7931 587.27928,86.6756 587.27928,86.0556 L 587.27928,83.9081 L 586.70553,83.9081 L 586.70553,83.41935 L 587.27928,83.41935 L 587.27928,82.40685 L 587.83428,82.40685 L 587.83428,83.41935 z" />
      <path
         id="path2930"
         style="fill:#000000;fill-opacity:1;fill-rule:nonzero;stroke:none"
         d="M 590.93928,83.8306 C 590.19428,83.8306 589.90553,84.46935 589.90553,85.1031 C 589.90553,85.76935 590.20678,86.38185 590.97178,86.38185 C 591.72928,86.38185 591.98303,85.73685 591.98303,85.07685 C 591.98303,84.4431 591.65678,83.8306 590.93928,83.8306 M 589.36928,82.1331 L 589.92553,82.1331 L 589.92553,83.8756 L 589.93928,83.8756 C 590.12178,83.5031 590.55303,83.3406 591.01678,83.3406 C 592.05553,83.3406 592.57053,84.1631 592.57053,85.1156 C 592.57053,86.06935 592.06178,86.87185 591.03053,86.87185 C 590.68428,86.87185 590.18803,86.74185 589.93928,86.3431 L 589.92553,86.3431 L 589.92553,86.7931 L 589.36928,86.7931 L 589.36928,82.1331 z" />
      <path
         id="path2932"
         style="fill:#000000;fill-opacity:1;fill-rule:nonzero;stroke:none"
         d="M 595.54053,85.0506 C 595.32553,85.2081 594.90803,85.21435 594.53553,85.27935 C 594.17053,85.34435 593.85678,85.47435 593.85678,85.8856 C 593.85678,86.25185 594.17053,86.38185 594.50928,86.38185 C 595.24053,86.38185 595.54053,85.9256 595.54053,85.6181 L 595.54053,85.0506 z M 596.44178,86.7806 C 596.34428,86.83935 596.22053,86.87185 596.04303,86.87185 C 595.75678,86.87185 595.57303,86.7156 595.57303,86.34935 C 595.26678,86.70935 594.85553,86.87185 594.38553,86.87185 C 593.77178,86.87185 593.26928,86.5981 593.26928,85.9256 C 593.26928,85.16185 593.83803,84.9981 594.41178,84.8881 C 595.02553,84.7706 595.54803,84.80935 595.54803,84.39185 C 595.54803,83.9081 595.14928,83.8306 594.79678,83.8306 C 594.32678,83.8306 593.98053,83.9731 593.95428,84.46935 L 593.40053,84.46935 C 593.43303,83.63435 594.07928,83.3406 594.83053,83.3406 C 595.43678,83.3406 596.09678,83.47685 596.09678,84.26685 L 596.09678,86.00435 C 596.09678,86.26435 596.09678,86.38185 596.27178,86.38185 C 596.31803,86.38185 596.37053,86.3756 596.44178,86.34935 L 596.44178,86.7806 z" />
      <path
         id="path2934"
         style="fill:#000000;fill-opacity:1;fill-rule:nonzero;stroke:none"
         d="M 597.21928,82.1331 L 597.77428,82.1331 L 597.77428,86.79435 L 597.21928,86.79435 L 597.21928,82.1331 z" />
      <path
         id="path2936"
         style="fill:#000000;fill-opacity:1;fill-rule:nonzero;stroke:none"
         d="M 598.89553,82.1331 L 599.45178,82.1331 L 599.45178,86.79435 L 598.89553,86.79435 L 598.89553,82.1331 z" />
      <path
         id="path2938"
         style="fill:#000000;fill-opacity:1;fill-rule:nonzero;stroke:none"
         d="M 525.61553,97.5806 C 525.54428,96.91435 525.10053,96.6281 524.46053,96.6281 C 523.93803,96.6281 523.41553,96.81685 523.41553,97.4231 C 523.41553,97.9981 524.16053,98.08185 524.91053,98.25185 C 525.65553,98.42185 526.39928,98.6831 526.39928,99.59685 C 526.39928,100.5881 525.42678,100.98685 524.57803,100.98685 C 523.53303,100.98685 522.65178,100.47685 522.65178,99.34185 L 523.24053,99.34185 C 523.24053,100.1256 523.89303,100.46435 524.59803,100.46435 C 525.15928,100.46435 525.77928,100.2881 525.77928,99.61685 C 525.77928,98.97685 525.03553,98.8656 524.29053,98.70185 C 523.54678,98.53935 522.79553,98.32435 522.79553,97.46935 C 522.79553,96.5231 523.63803,96.1056 524.48678,96.1056 C 525.43928,96.1056 526.16428,96.5556 526.20428,97.5806 L 525.61553,97.5806 z" />
      <path
         id="path2940"
         style="fill:#000000;fill-opacity:1;fill-rule:nonzero;stroke:none"
         d="M 530.62928,100.8756 L 530.04303,100.8756 L 529.35678,98.1931 L 529.34303,98.1931 L 528.66428,100.8756 L 528.06428,100.8756 L 526.98053,97.50185 L 527.59428,97.50185 L 528.35803,100.26185 L 528.37053,100.26185 L 529.04928,97.50185 L 529.65678,97.50185 L 530.36178,100.26185 L 530.37553,100.26185 L 531.13178,97.50185 L 531.70678,97.50185 L 530.62928,100.8756 z" />
      <path
         id="path2942"
         style="fill:#000000;fill-opacity:1;fill-rule:nonzero;stroke:none"
         d="M 532.49678,97.50185 L 533.05178,97.50185 L 533.05178,100.8756 L 532.49678,100.8756 L 532.49678,97.50185 z M 533.05178,96.89435 L 532.49678,96.89435 L 532.49678,96.2156 L 533.05178,96.2156 L 533.05178,96.89435 z" />
      <path
         id="path2944"
         style="fill:#000000;fill-opacity:1;fill-rule:nonzero;stroke:none"
         d="M 534.48053,99.81185 C 534.50053,100.3081 534.93178,100.46435 535.38803,100.46435 C 535.73428,100.46435 536.20428,100.38685 536.20428,99.96185 C 536.20428,99.53185 535.65678,99.45935 535.10178,99.3356 C 534.55303,99.21185 533.99803,99.02935 533.99803,98.3831 C 533.99803,97.70435 534.67053,97.4231 535.25803,97.4231 C 536.00178,97.4231 536.59678,97.6581 536.64178,98.4806 L 536.08678,98.4806 C 536.04803,98.04935 535.66928,97.9131 535.30303,97.9131 C 534.97053,97.9131 534.58553,98.00435 534.58553,98.34435 C 534.58553,98.7406 535.17303,98.80685 535.68803,98.9306 C 536.24428,99.0556 536.79178,99.2381 536.79178,99.8906 C 536.79178,100.6931 536.04053,100.95435 535.35553,100.95435 C 534.59803,100.95435 533.95928,100.64685 533.92553,99.81185 L 534.48053,99.81185 z" />
      <path
         id="path2946"
         style="fill:#000000;fill-opacity:1;fill-rule:nonzero;stroke:none"
         d="M 537.97303,99.81185 C 537.99303,100.3081 538.42428,100.46435 538.88053,100.46435 C 539.22678,100.46435 539.69678,100.38685 539.69678,99.96185 C 539.69678,99.53185 539.14803,99.45935 538.59303,99.3356 C 538.04553,99.21185 537.48928,99.02935 537.48928,98.3831 C 537.48928,97.70435 538.16178,97.4231 538.75053,97.4231 C 539.49428,97.4231 540.08803,97.6581 540.13428,98.4806 L 539.57928,98.4806 C 539.54053,98.04935 539.16178,97.9131 538.79553,97.9131 C 538.46303,97.9131 538.07803,98.00435 538.07803,98.34435 C 538.07803,98.7406 538.66553,98.80685 539.18053,98.9306 C 539.73553,99.0556 540.28428,99.2381 540.28428,99.8906 C 540.28428,100.6931 539.53303,100.95435 538.84803,100.95435 C 538.09053,100.95435 537.45053,100.64685 537.41803,99.81185 L 537.97303,99.81185 z" />
      <path
         id="path2948"
         style="fill:#000000;fill-opacity:1;fill-rule:nonzero;stroke:none"
         d="M 543.26178,96.21685 L 546.32303,96.21685 L 546.32303,96.7381 L 543.88053,96.7381 L 543.88053,98.21935 L 546.02178,98.21935 L 546.02178,98.7406 L 543.88053,98.7406 L 543.88053,100.8756 L 543.26178,100.8756 L 543.26178,96.21685 z" />
      <path
         id="path2950"
         style="fill:#000000;fill-opacity:1;fill-rule:nonzero;stroke:none"
         d="M 548.60053,100.46435 C 549.18178,100.46435 549.65178,100.0081 549.65178,99.19185 C 549.65178,98.3706 549.18178,97.9131 548.60053,97.9131 C 548.01928,97.9131 547.54928,98.3706 547.54928,99.19185 C 547.54928,100.0081 548.01928,100.46435 548.60053,100.46435 M 548.60053,97.4231 C 549.67053,97.4231 550.23928,98.2006 550.23928,99.19185 C 550.23928,100.17685 549.67053,100.95435 548.60053,100.95435 C 547.53053,100.95435 546.96178,100.17685 546.96178,99.19185 C 546.96178,98.2006 547.53053,97.4231 548.60053,97.4231" />
      <path
         id="path2952"
         style="fill:#000000;fill-opacity:1;fill-rule:nonzero;stroke:none"
         d="M 552.57678,100.46435 C 553.15678,100.46435 553.62678,100.0081 553.62678,99.19185 C 553.62678,98.3706 553.15678,97.9131 552.57678,97.9131 C 551.99553,97.9131 551.52553,98.3706 551.52553,99.19185 C 551.52553,100.0081 551.99553,100.46435 552.57678,100.46435 M 552.57678,97.4231 C 553.64678,97.4231 554.21428,98.2006 554.21428,99.19185 C 554.21428,100.17685 553.64678,100.95435 552.57678,100.95435 C 551.50553,100.95435 550.93803,100.17685 550.93803,99.19185 C 550.93803,98.2006 551.50553,97.4231 552.57678,97.4231" />
      <path
         id="path2954"
         style="fill:#000000;fill-opacity:1;fill-rule:nonzero;stroke:none"
         d="M 555.86553,97.50185 L 556.53803,97.50185 L 556.53803,97.99185 L 555.86553,97.99185 L 555.86553,100.0856 C 555.86553,100.3406 555.93803,100.38685 556.28428,100.38685 L 556.53803,100.38685 L 556.53803,100.8756 L 556.11428,100.8756 C 555.53928,100.8756 555.31178,100.7581 555.31178,100.1381 L 555.31178,97.99185 L 554.73678,97.99185 L 554.73678,97.50185 L 555.31178,97.50185 L 555.31178,96.4906 L 555.86553,96.4906 L 555.86553,97.50185 z" />
      <path
         id="path2956"
         style="fill:#000000;fill-opacity:1;fill-rule:nonzero;stroke:none"
         d="M 558.96678,97.9131 C 558.22303,97.9131 557.93553,98.55185 557.93553,99.1856 C 557.93553,99.8506 558.23553,100.46435 558.99928,100.46435 C 559.75678,100.46435 560.01178,99.8181 560.01178,99.15935 C 560.01178,98.5256 559.68428,97.9131 558.96678,97.9131 M 557.40053,96.21685 L 557.95553,96.21685 L 557.95553,97.95935 L 557.96803,97.95935 C 558.15053,97.58685 558.58178,97.4231 559.04553,97.4231 C 560.08303,97.4231 560.59928,98.2456 560.59928,99.1981 C 560.59928,100.1506 560.08928,100.95435 559.05803,100.95435 C 558.71178,100.95435 558.21553,100.8231 557.96803,100.4256 L 557.95553,100.4256 L 557.95553,100.8756 L 557.40053,100.8756 L 557.40053,96.21685 z" />
      <path
         id="path2958"
         style="fill:#000000;fill-opacity:1;fill-rule:nonzero;stroke:none"
         d="M 563.56928,99.1331 C 563.35303,99.2906 562.93553,99.29685 562.56428,99.36185 C 562.19803,99.42685 561.88428,99.5581 561.88428,99.96935 C 561.88428,100.3331 562.19803,100.46435 562.53803,100.46435 C 563.26928,100.46435 563.56928,100.0081 563.56928,99.70185 L 563.56928,99.1331 z M 564.46928,100.8631 C 564.37303,100.92185 564.24803,100.95435 564.07178,100.95435 C 563.78428,100.95435 563.60178,100.79685 563.60178,100.43185 C 563.29553,100.7906 562.88428,100.95435 562.41428,100.95435 C 561.80053,100.95435 561.29803,100.67935 561.29803,100.0081 C 561.29803,99.24435 561.86553,99.0806 562.44053,98.9706 C 563.05303,98.85185 563.57553,98.89185 563.57553,98.47435 C 563.57553,97.99185 563.17803,97.9131 562.82553,97.9131 C 562.35553,97.9131 562.00928,98.05685 561.98303,98.55185 L 561.42803,98.55185 C 561.46053,97.71685 562.10678,97.4231 562.85803,97.4231 C 563.46428,97.4231 564.12428,97.5606 564.12428,98.3506 L 564.12428,100.0856 C 564.12428,100.34685 564.12428,100.46435 564.30053,100.46435 C 564.34553,100.46435 564.39803,100.4581 564.46928,100.43185 L 564.46928,100.8631 z" />
      <path
         id="path2960"
         style="fill:#000000;fill-opacity:1;fill-rule:nonzero;stroke:none"
         d="M 565.24678,96.21685 L 565.80178,96.21685 L 565.80178,100.8756 L 565.24678,100.8756 L 565.24678,96.21685 z" />
      <path
         id="path2962"
         style="fill:#000000;fill-opacity:1;fill-rule:nonzero;stroke:none"
         d="M 566.92428,96.21685 L 567.47928,96.21685 L 567.47928,100.8756 L 566.92428,100.8756 L 566.92428,96.21685 z" />
      <path
         id="path2964"
         style="fill:#000000;fill-opacity:1;fill-rule:nonzero;stroke:none"
         d="M 571.50678,98.9506 L 573.08678,98.9506 L 572.30928,96.7781 L 572.29678,96.7781 L 571.50678,98.9506 z M 571.97053,96.21685 L 572.65553,96.21685 L 574.47803,100.8756 L 573.79178,100.8756 L 573.28303,99.4731 L 571.31053,99.4731 L 570.78803,100.8756 L 570.14928,100.8756 L 571.97053,96.21685 z" />
      <path
         id="path2966"
         style="fill:#000000;fill-opacity:1;fill-rule:nonzero;stroke:none"
         d="M 575.41053,99.81185 C 575.43053,100.3081 575.86178,100.46435 576.31803,100.46435 C 576.66428,100.46435 577.13428,100.38685 577.13428,99.96185 C 577.13428,99.53185 576.58553,99.45935 576.03053,99.3356 C 575.48303,99.21185 574.92678,99.02935 574.92678,98.3831 C 574.92678,97.70435 575.60053,97.4231 576.18803,97.4231 C 576.93178,97.4231 577.52553,97.6581 577.57178,98.4806 L 577.01678,98.4806 C 576.97803,98.04935 576.59928,97.9131 576.23303,97.9131 C 575.90053,97.9131 575.51553,98.00435 575.51553,98.34435 C 575.51553,98.7406 576.10303,98.80685 576.61803,98.9306 C 577.17303,99.0556 577.72178,99.2381 577.72178,99.8906 C 577.72178,100.6931 576.97053,100.95435 576.28553,100.95435 C 575.52803,100.95435 574.88928,100.64685 574.85678,99.81185 L 575.41053,99.81185 z" />
      <path
         id="path2968"
         style="fill:#000000;fill-opacity:1;fill-rule:nonzero;stroke:none"
         d="M 578.90303,99.81185 C 578.92303,100.3081 579.35303,100.46435 579.81053,100.46435 C 580.15678,100.46435 580.62678,100.38685 580.62678,99.96185 C 580.62678,99.53185 580.07803,99.45935 579.52303,99.3356 C 578.97428,99.21185 578.42053,99.02935 578.42053,98.3831 C 578.42053,97.70435 579.09178,97.4231 579.67928,97.4231 C 580.42428,97.4231 581.01803,97.6581 581.06428,98.4806 L 580.50803,98.4806 C 580.47053,98.04935 580.09178,97.9131 579.72553,97.9131 C 579.39178,97.9131 579.00678,98.00435 579.00678,98.34435 C 579.00678,98.7406 579.59553,98.80685 580.11053,98.9306 C 580.66553,99.0556 581.21303,99.2381 581.21303,99.8906 C 581.21303,100.6931 580.46303,100.95435 579.77803,100.95435 C 579.02053,100.95435 578.38053,100.64685 578.34803,99.81185 L 578.90303,99.81185 z" />
      <path
         id="path2970"
         style="fill:#000000;fill-opacity:1;fill-rule:nonzero;stroke:none"
         d="M 583.51178,100.46435 C 584.09303,100.46435 584.56303,100.0081 584.56303,99.19185 C 584.56303,98.3706 584.09303,97.9131 583.51178,97.9131 C 582.93053,97.9131 582.46053,98.3706 582.46053,99.19185 C 582.46053,100.0081 582.93053,100.46435 583.51178,100.46435 M 583.51178,97.4231 C 584.58178,97.4231 585.15053,98.2006 585.15053,99.19185 C 585.15053,100.17685 584.58178,100.95435 583.51178,100.95435 C 582.44178,100.95435 581.87303,100.17685 581.87303,99.19185 C 581.87303,98.2006 582.44178,97.4231 583.51178,97.4231" />
      <path
         id="path2972"
         style="fill:#000000;fill-opacity:1;fill-rule:nonzero;stroke:none"
         d="M 588.32303,98.5856 C 588.23803,98.1606 587.94428,97.9131 587.48678,97.9131 C 586.68428,97.9131 586.43553,98.5456 586.43553,99.23185 C 586.43553,99.8506 586.71678,100.46435 587.42178,100.46435 C 587.95678,100.46435 588.27803,100.1506 588.34928,99.6431 L 588.91803,99.6431 C 588.79303,100.46435 588.27803,100.95435 587.42803,100.95435 C 586.39803,100.95435 585.84803,100.2356 585.84803,99.23185 C 585.84803,98.21935 586.37053,97.4231 587.44178,97.4231 C 588.20553,97.4231 588.81928,97.78185 588.89803,98.5856 L 588.32303,98.5856 z" />
      <path
         id="path2974"
         style="fill:#000000;fill-opacity:1;fill-rule:nonzero;stroke:none"
         d="M 589.80053,97.50185 L 590.35678,97.50185 L 590.35678,100.8756 L 589.80053,100.8756 L 589.80053,97.50185 z M 590.35553,96.89435 L 589.79928,96.89435 L 589.79928,96.2156 L 590.35553,96.2156 L 590.35553,96.89435 z" />
      <path
         id="path2976"
         style="fill:#000000;fill-opacity:1;fill-rule:nonzero;stroke:none"
         d="M 593.53678,99.1331 C 593.32053,99.2906 592.90303,99.29685 592.53053,99.36185 C 592.16553,99.42685 591.85178,99.5581 591.85178,99.96935 C 591.85178,100.3331 592.16553,100.46435 592.50553,100.46435 C 593.23553,100.46435 593.53678,100.0081 593.53678,99.70185 L 593.53678,99.1331 z M 594.43678,100.8631 C 594.33928,100.92185 594.21428,100.95435 594.03803,100.95435 C 593.75053,100.95435 593.56928,100.79685 593.56928,100.43185 C 593.26178,100.7906 592.85053,100.95435 592.38053,100.95435 C 591.76678,100.95435 591.26428,100.67935 591.26428,100.0081 C 591.26428,99.24435 591.83178,99.0806 592.40678,98.9706 C 593.02053,98.85185 593.54303,98.89185 593.54303,98.47435 C 593.54303,97.99185 593.14428,97.9131 592.79178,97.9131 C 592.32178,97.9131 591.97553,98.05685 591.94928,98.55185 L 591.39428,98.55185 C 591.42803,97.71685 592.07428,97.4231 592.82428,97.4231 C 593.43178,97.4231 594.09053,97.5606 594.09053,98.3506 L 594.09053,100.0856 C 594.09053,100.34685 594.09053,100.46435 594.26803,100.46435 C 594.31303,100.46435 594.36553,100.4581 594.43678,100.43185 L 594.43678,100.8631 z" />
      <path
         id="path2978"
         style="fill:#000000;fill-opacity:1;fill-rule:nonzero;stroke:none"
         d="M 595.95053,97.50185 L 596.62303,97.50185 L 596.62303,97.99185 L 595.95053,97.99185 L 595.95053,100.0856 C 595.95053,100.3406 596.02303,100.38685 596.36928,100.38685 L 596.62303,100.38685 L 596.62303,100.8756 L 596.19928,100.8756 C 595.62428,100.8756 595.39678,100.7581 595.39678,100.1381 L 595.39678,97.99185 L 594.82178,97.99185 L 594.82178,97.50185 L 595.39678,97.50185 L 595.39678,96.4906 L 595.95053,96.4906 L 595.95053,97.50185 z" />
      <path
         id="path2980"
         style="fill:#000000;fill-opacity:1;fill-rule:nonzero;stroke:none"
         d="M 597.49803,97.50185 L 598.05428,97.50185 L 598.05428,100.8756 L 597.49803,100.8756 L 597.49803,97.50185 z M 598.05303,96.89435 L 597.49678,96.89435 L 597.49678,96.2156 L 598.05303,96.2156 L 598.05303,96.89435 z" />
      <path
         id="path2982"
         style="fill:#000000;fill-opacity:1;fill-rule:nonzero;stroke:none"
         d="M 600.59928,100.46435 C 601.17928,100.46435 601.64928,100.0081 601.64928,99.19185 C 601.64928,98.3706 601.17928,97.9131 600.59928,97.9131 C 600.01803,97.9131 599.54803,98.3706 599.54803,99.19185 C 599.54803,100.0081 600.01803,100.46435 600.59928,100.46435 M 600.59928,97.4231 C 601.66928,97.4231 602.23678,98.2006 602.23678,99.19185 C 602.23678,100.17685 601.66928,100.95435 600.59928,100.95435 C 599.52928,100.95435 598.95928,100.17685 598.95928,99.19185 C 598.95928,98.2006 599.52928,97.4231 600.59928,97.4231" />
      <path
         id="path2984"
         style="fill:#000000;fill-opacity:1;fill-rule:nonzero;stroke:none"
         d="M 603.11803,97.50185 L 603.64178,97.50185 L 603.64178,98.03685 L 603.65303,98.03685 C 603.88928,97.61935 604.26803,97.4231 604.75053,97.4231 C 605.63803,97.4231 605.91178,97.9331 605.91178,98.65685 L 605.91178,100.8756 L 605.35678,100.8756 L 605.35678,98.59185 C 605.35678,98.1806 605.09678,97.9131 604.67303,97.9131 C 603.99928,97.9131 603.67428,98.3631 603.67428,98.9706 L 603.67428,100.8756 L 603.11803,100.8756 L 603.11803,97.50185 z" />
      <path
         id="path2986"
         style="fill:#d7002c;fill-opacity:1;fill-rule:nonzero;stroke:none"
         d="M 495.01428,49.48185 L 612.35178,49.48185 L 612.35178,48.99185 L 495.01428,48.99185 L 495.01428,49.48185 z" />
      <path
         id="path2988"
         style="fill:#d7002c;fill-opacity:1;fill-rule:nonzero;stroke:none"
         d="M 485.04178,63.5656 L 602.37928,63.5656 L 602.37928,63.0756 L 485.04178,63.0756 L 485.04178,63.5656 z" />
      <path
         id="path2990"
         style="fill:#d7002c;fill-opacity:1;fill-rule:nonzero;stroke:none"
         d="M 482.31303,77.64935 L 599.65053,77.64935 L 599.65053,77.15935 L 482.31303,77.15935 L 482.31303,77.64935 z" />
      <path
         id="path2992"
         style="fill:#d7002c;fill-opacity:1;fill-rule:nonzero;stroke:none"
         d="M 485.04178,91.7331 L 602.37928,91.7331 L 602.37928,91.24435 L 485.04178,91.24435 L 485.04178,91.7331 z" />
      <path
         id="path2994"
         style="fill:#d7002c;fill-opacity:1;fill-rule:nonzero;stroke:none"
         d="M 495.01678,105.81435 L 612.35428,105.81435 L 612.35428,105.32435 L 495.01678,105.32435 L 495.01678,105.81435 z" />
    </g>
  </g>
</svg>
