<?xml version="1.0" encoding="UTF-8" standalone="no"?>
<!-- Created with Inkscape (http://www.inkscape.org/) -->
<svg
   xmlns:svg="http://www.w3.org/2000/svg"
   xmlns="http://www.w3.org/2000/svg"
   version="1.0"
   width="771.42859"
   height="605.71429"
   id="svg2437">
  <defs
     id="defs2439" />
  <g
     transform="translate(371.42856,-175.21933)"
     id="layer1">
    <path
       d="M -150.14669,590.82234 C -139.21169,483.57359 -84.892944,279.91734 20.253306,279.91734 C 79.148306,279.91734 127.45581,362.43734 150.45331,431.45984 L 198.42706,403.69484 C 173.44706,311.21609 105.38831,181.22484 20.068306,181.22484 C -98.10294,181.22484 -188.31294,399.01484 -208.87419,628.23234 L -150.14669,590.82234"
       id="path23"
       style="fill:#000000;fill-opacity:1;fill-rule:nonzero;stroke:none" />
    <path
       d="M 19.082056,322.33359 C -1.1154443,322.33359 -17.507944,338.73484 -17.507944,358.95234 C -17.507944,379.19734 -1.1154443,395.58859 19.082056,395.58859 C 39.274556,395.58859 55.654556,379.19734 55.654556,358.95234 C 55.654556,338.73484 39.274556,322.33359 19.082056,322.33359"
       id="path25"
       style="fill:#000000;fill-opacity:1;fill-rule:nonzero;stroke:none" />
    <path
       d="M -321.07663,712.77063 L -235.97351,712.77063 L -235.98574,682.23254 L -195.6718,682.23254 L -195.68402,772.63016 L -235.97351,772.63016 L -235.97351,736.84038 L -321.07663,736.84038 L -321.07663,772.63016 L -361.3172,772.63016 L -361.37223,682.23254 L -321.07663,682.21421 L -321.07663,712.77063 z"
       id="path29"
       style="fill:#1a171b;fill-opacity:1;fill-rule:nonzero;stroke:none" />
    <path
       d="M 323.50617,739.07189 C 321.29911,743.26592 316.77495,744.42752 312.85605,744.40918 L 226.91534,744.40918 L 226.91534,710.67362 L 312.78268,710.67362 C 316.71381,710.66139 321.2502,711.81688 323.45726,716.01702 C 327.08881,723.21899 327.14995,732.14504 323.50617,739.07189 M 59.399136,737.50067 L 82.92478,705.26297 L 93.99063,705.26297 L 117.46735,737.49456 L 59.399136,737.50067 z M 358.04263,701.54582 C 351.16468,687.54538 336.60789,682.26312 322.96816,682.26312 L 186.46079,682.26312 L 186.41188,769.34708 L 123.06753,682.26312 L 53.823406,682.31202 L -9.527064,769.30429 L -9.490374,752.01466 L -134.48559,752.02078 L -134.48559,737.76356 L -9.490374,737.76356 L -9.490374,717.13583 L -134.48559,717.12972 L -134.48559,702.88473 L -9.514824,702.89084 L -9.502604,682.26312 L -174.77506,682.26312 L -174.77506,772.63016 L 33.917106,772.63627 L 44.628356,757.98167 L 132.37874,757.98167 L 143.06554,772.63627 L 323.05375,772.64238 C 336.68737,772.64238 351.24416,767.35401 358.10988,753.36579 C 365.95379,737.40896 366.4918,716.73233 358.04263,701.54582"
       id="path31"
       style="fill:#1a171b;fill-opacity:1;fill-rule:nonzero;stroke:none" />
    <path
       d="M 372.71558,663.10268 L 372.71558,675.67863 L 374.84316,675.67863 L 374.84316,670.72039 L 376.64671,670.72039 C 377.83889,670.72039 378.68258,670.85489 379.16556,671.13001 C 379.96035,671.59466 380.3822,672.55451 380.3822,674.02181 L 380.3822,675.00612 L 380.41888,675.41573 C 380.43111,675.47076 380.45556,675.51356 380.45556,675.55636 C 380.4739,675.59914 380.4739,675.63583 380.4739,675.67863 L 382.55257,675.67863 L 382.46087,675.51967 C 382.41196,675.41573 382.37527,675.18953 382.35082,674.87162 C 382.32636,674.53536 382.30191,674.22967 382.30191,673.93011 L 382.30191,673.00082 C 382.30191,672.37722 382.10016,671.72304 381.65997,671.04442 C 381.19532,670.38413 380.49836,669.97452 379.53239,669.82167 C 380.28438,669.69328 380.89575,669.49153 381.33594,669.21031 C 382.14906,668.69063 382.55257,667.85917 382.55257,666.74036 C 382.55257,665.15689 381.91063,664.10533 380.58395,663.55511 C 379.84419,663.25553 378.70704,663.10268 377.14803,663.10268 L 372.71558,663.10268 z M 380.41888,666.95433 C 380.41888,667.90197 379.97258,668.53779 379.0922,668.88627 C 378.6031,669.06357 377.8878,669.16139 376.90348,669.16139 L 374.84316,669.16139 L 374.84316,664.66779 L 376.79955,664.66779 C 378.07732,664.66779 378.99438,664.82676 379.56907,665.12022 C 380.13153,665.43813 380.41888,666.04339 380.41888,666.95433 M 388.8008,669.42428 C 388.8008,666.28182 387.67588,663.59789 385.43214,661.37249 C 383.21285,659.15933 380.52281,658.05274 377.34979,658.05274 C 374.20733,658.05274 371.5234,659.15933 369.31023,661.37249 C 367.07872,663.59789 365.96602,666.29406 365.96602,669.42428 C 365.96602,672.59731 367.07872,675.28123 369.27355,677.51274 C 371.49895,679.76259 374.1951,680.88141 377.34979,680.88141 C 380.52281,680.88141 383.21285,679.76259 385.43214,677.51274 C 387.67588,675.28123 388.8008,672.59119 388.8008,669.42428 M 377.37424,659.61786 C 380.09485,659.61786 382.43641,660.57161 384.35612,662.50354 C 386.26972,664.41713 387.22346,666.72813 387.22346,669.45486 C 387.22346,672.17546 386.26972,674.51091 384.35612,676.43673 C 382.43641,678.36256 380.10708,679.31018 377.37424,679.31018 C 374.62306,679.31018 372.29985,678.36256 370.38625,676.43673 C 368.47876,674.51091 367.54336,672.17546 367.54336,669.45486 C 367.54336,666.72813 368.47876,664.41713 370.4107,662.50354 C 372.31819,660.57161 374.64752,659.61786 377.37424,659.61786"
       id="path33"
       style="fill:#1a171b;fill-opacity:1;fill-rule:nonzero;stroke:none" />
  </g>
</svg>
